<svg width="500" height="200" viewBox="0 0 500 200" fill="none" xmlns="http://www.w3.org/2000/svg">
<g clip-path="url(#clip0_1370_12380)">
<rect width="500" height="200" fill="#25292E"/>
<path opacity="0.85" d="M238.712 199.88C239.314 199.88 239.802 199.392 239.802 198.791C239.802 198.189 239.314 197.701 238.712 197.701C238.11 197.701 237.623 198.189 237.623 198.791C237.623 199.392 238.11 199.88 238.712 199.88Z" fill="#9DD3FF"/>
<path opacity="0.84" d="M228.907 194.977C229.508 194.977 229.996 194.489 229.996 193.887C229.996 193.286 229.508 192.798 228.907 192.798C228.305 192.798 227.817 193.286 227.817 193.887C227.817 194.489 228.305 194.977 228.907 194.977Z" fill="#9DD3FF"/>
<path opacity="0.83" d="M217.468 193.07C218.22 193.07 218.829 192.461 218.829 191.709C218.829 190.956 218.22 190.347 217.468 190.347C216.715 190.347 216.106 190.956 216.106 191.709C216.106 192.461 216.715 193.07 217.468 193.07Z" fill="#9DD3FF"/>
<path opacity="0.82" d="M258.867 201.787C259.619 201.787 260.229 201.177 260.229 200.425C260.229 199.673 259.619 199.063 258.867 199.063C258.115 199.063 257.505 199.673 257.505 200.425C257.505 201.177 258.115 201.787 258.867 201.787Z" fill="#9DD3FF"/>
<path opacity="0.82" d="M205.483 192.526C206.235 192.526 206.845 191.917 206.845 191.165C206.845 190.412 206.235 189.803 205.483 189.803C204.731 189.803 204.121 190.412 204.121 191.165C204.121 191.917 204.731 192.526 205.483 192.526Z" fill="#9DD3FF"/>
<path opacity="0.81" d="M250.152 193.07C250.904 193.07 251.514 192.461 251.514 191.709C251.514 190.956 250.904 190.347 250.152 190.347C249.4 190.347 248.79 190.956 248.79 191.709C248.79 192.461 249.4 193.07 250.152 193.07Z" fill="#9DD3FF"/>
<path opacity="0.8" d="M192.954 195.25C193.706 195.25 194.316 194.64 194.316 193.888C194.316 193.136 193.706 192.526 192.954 192.526C192.202 192.526 191.592 193.136 191.592 193.888C191.592 194.64 192.202 195.25 192.954 195.25Z" fill="#9DD3FF"/>
<path opacity="0.8" d="M238.712 185.989C239.464 185.989 240.074 185.38 240.074 184.627C240.074 183.875 239.464 183.266 238.712 183.266C237.96 183.266 237.35 183.875 237.35 184.627C237.35 185.38 237.96 185.989 238.712 185.989Z" fill="#9DD3FF"/>
<path opacity="0.79" d="M180.425 200.697C181.177 200.697 181.787 200.088 181.787 199.335C181.787 198.583 181.177 197.974 180.425 197.974C179.673 197.974 179.063 198.583 179.063 199.335C179.063 200.088 179.673 200.697 180.425 200.697Z" fill="#9DD3FF"/>
<path opacity="0.79" d="M226.183 181.632C226.935 181.632 227.545 181.022 227.545 180.27C227.545 179.518 226.935 178.908 226.183 178.908C225.431 178.908 224.821 179.518 224.821 180.27C224.821 181.022 225.431 181.632 226.183 181.632Z" fill="#9DD3FF"/>
<path opacity="0.79" d="M272.486 199.607C273.238 199.607 273.848 198.998 273.848 198.246C273.848 197.494 273.238 196.884 272.486 196.884C271.734 196.884 271.124 197.494 271.124 198.246C271.124 198.998 271.734 199.607 272.486 199.607Z" fill="#9DD3FF"/>
<path opacity="0.78" d="M212.02 180.269C212.922 180.269 213.654 179.538 213.654 178.635C213.654 177.733 212.922 177.001 212.02 177.001C211.117 177.001 210.386 177.733 210.386 178.635C210.386 179.538 211.117 180.269 212.02 180.269Z" fill="#9DD3FF"/>
<path opacity="0.78" d="M263.225 188.44C264.128 188.44 264.859 187.709 264.859 186.806C264.859 185.904 264.128 185.172 263.225 185.172C262.322 185.172 261.591 185.904 261.591 186.806C261.591 187.709 262.322 188.44 263.225 188.44Z" fill="#9DD3FF"/>
<path opacity="0.77" d="M196.767 181.904C197.67 181.904 198.401 181.173 198.401 180.27C198.401 179.367 197.67 178.636 196.767 178.636C195.865 178.636 195.133 179.367 195.133 180.27C195.133 181.173 195.865 181.904 196.767 181.904Z" fill="#9DD3FF"/>
<path opacity="0.77" d="M251.786 179.181C252.688 179.181 253.42 178.449 253.42 177.546C253.42 176.644 252.688 175.912 251.786 175.912C250.883 175.912 250.151 176.644 250.151 177.546C250.151 178.449 250.883 179.181 251.786 179.181Z" fill="#9DD3FF"/>
<path opacity="0.76" d="M182.059 186.262C182.962 186.262 183.693 185.53 183.693 184.627C183.693 183.725 182.962 182.993 182.059 182.993C181.157 182.993 180.425 183.725 180.425 184.627C180.425 185.53 181.157 186.262 182.059 186.262Z" fill="#9DD3FF"/>
<path opacity="0.76" d="M237.623 172.643C238.525 172.643 239.257 171.912 239.257 171.009C239.257 170.107 238.525 169.375 237.623 169.375C236.72 169.375 235.988 170.107 235.988 171.009C235.988 171.912 236.72 172.643 237.623 172.643Z" fill="#9DD3FF"/>
<path opacity="0.76" d="M287.739 200.425C288.641 200.425 289.373 199.693 289.373 198.79C289.373 197.888 288.641 197.156 287.739 197.156C286.836 197.156 286.104 197.888 286.104 198.79C286.104 199.693 286.836 200.425 287.739 200.425Z" fill="#9DD3FF"/>
<path opacity="0.75" d="M167.896 194.433C168.798 194.433 169.53 193.701 169.53 192.798C169.53 191.896 168.798 191.164 167.896 191.164C166.993 191.164 166.262 191.896 166.262 192.798C166.262 193.701 166.993 194.433 167.896 194.433Z" fill="#9DD3FF"/>
<path opacity="0.75" d="M221.825 168.285C222.728 168.285 223.459 167.553 223.459 166.651C223.459 165.748 222.728 165.017 221.825 165.017C220.923 165.017 220.191 165.748 220.191 166.651C220.191 167.553 220.923 168.285 221.825 168.285Z" fill="#9DD3FF"/>
<path opacity="0.75" d="M278.478 186.807C279.381 186.807 280.112 186.075 280.112 185.172C280.112 184.27 279.381 183.538 278.478 183.538C277.576 183.538 276.844 184.27 276.844 185.172C276.844 186.075 277.576 186.807 278.478 186.807Z" fill="#9DD3FF"/>
<path opacity="0.74" d="M204.938 168.012C205.991 168.012 206.845 167.159 206.845 166.106C206.845 165.053 205.991 164.199 204.938 164.199C203.885 164.199 203.032 165.053 203.032 166.106C203.032 167.159 203.885 168.012 204.938 168.012Z" fill="#9DD3FF"/>
<path opacity="0.74" d="M266.494 175.094C267.547 175.094 268.4 174.241 268.4 173.188C268.4 172.135 267.547 171.281 266.494 171.281C265.441 171.281 264.587 172.135 264.587 173.188C264.587 174.241 265.441 175.094 266.494 175.094Z" fill="#9DD3FF"/>
<path opacity="0.73" d="M187.507 171.281C188.56 171.281 189.413 170.427 189.413 169.374C189.413 168.321 188.56 167.468 187.507 167.468C186.454 167.468 185.6 168.321 185.6 169.374C185.6 170.427 186.454 171.281 187.507 171.281Z" fill="#9DD3FF"/>
<path opacity="0.73" d="M251.786 165.29C252.839 165.29 253.692 164.436 253.692 163.383C253.692 162.33 252.839 161.477 251.786 161.477C250.733 161.477 249.879 162.33 249.879 163.383C249.879 164.436 250.733 165.29 251.786 165.29Z" fill="#9DD3FF"/>
<path opacity="0.72" d="M170.619 178.363C171.672 178.363 172.526 177.509 172.526 176.456C172.526 175.403 171.672 174.55 170.619 174.55C169.566 174.55 168.713 175.403 168.713 176.456C168.713 177.509 169.566 178.363 170.619 178.363Z" fill="#9DD3FF"/>
<path opacity="0.71" d="M234.899 158.752C235.952 158.752 236.805 157.898 236.805 156.845C236.805 155.792 235.952 154.938 234.899 154.938C233.846 154.938 232.992 155.792 232.992 156.845C232.992 157.898 233.846 158.752 234.899 158.752Z" fill="#9DD3FF"/>
<path opacity="0.71" d="M295.365 188.713C296.418 188.713 297.272 187.859 297.272 186.806C297.272 185.753 296.418 184.899 295.365 184.899C294.312 184.899 293.459 185.753 293.459 186.806C293.459 187.859 294.312 188.713 295.365 188.713Z" fill="#9DD3FF"/>
<path opacity="0.71" d="M154.822 189.258C155.875 189.258 156.729 188.404 156.729 187.351C156.729 186.298 155.875 185.444 154.822 185.444C153.769 185.444 152.915 186.298 152.915 187.351C152.915 188.404 153.769 189.258 154.822 189.258Z" fill="#9DD3FF"/>
<path opacity="0.7" d="M215.833 155.484C216.886 155.484 217.74 154.63 217.74 153.577C217.74 152.525 216.886 151.671 215.833 151.671C214.78 151.671 213.926 152.525 213.926 153.577C213.926 154.63 214.78 155.484 215.833 155.484Z" fill="#9DD3FF"/>
<path opacity="0.7" d="M283.381 173.461C284.434 173.461 285.288 172.607 285.288 171.554C285.288 170.501 284.434 169.647 283.381 169.647C282.328 169.647 281.474 170.501 281.474 171.554C281.474 172.607 282.328 173.461 283.381 173.461Z" fill="#9DD3FF"/>
<path opacity="0.69" d="M141.203 203.693C142.407 203.693 143.382 202.717 143.382 201.514C143.382 200.311 142.407 199.335 141.203 199.335C140 199.335 139.024 200.311 139.024 201.514C139.024 202.717 140 203.693 141.203 203.693Z" fill="#9DD3FF"/>
<path opacity="0.69" d="M196.223 156.845C197.426 156.845 198.401 155.87 198.401 154.666C198.401 153.463 197.426 152.487 196.223 152.487C195.019 152.487 194.044 153.463 194.044 154.666C194.044 155.87 195.019 156.845 196.223 156.845Z" fill="#9DD3FF"/>
<path opacity="0.69" d="M268.673 160.659C269.876 160.659 270.852 159.683 270.852 158.48C270.852 157.276 269.876 156.301 268.673 156.301C267.47 156.301 266.494 157.276 266.494 158.48C266.494 159.683 267.47 160.659 268.673 160.659Z" fill="#9DD3FF"/>
<path opacity="0.68" d="M176.612 161.749C177.815 161.749 178.791 160.773 178.791 159.57C178.791 158.366 177.815 157.391 176.612 157.391C175.408 157.391 174.433 158.366 174.433 159.57C174.433 160.773 175.408 161.749 176.612 161.749Z" fill="#9DD3FF"/>
<path opacity="0.68" d="M250.696 150.853C251.9 150.853 252.875 149.877 252.875 148.674C252.875 147.471 251.9 146.495 250.696 146.495C249.493 146.495 248.517 147.471 248.517 148.674C248.517 149.877 249.493 150.853 250.696 150.853Z" fill="#9DD3FF"/>
<path opacity="0.68" d="M312.252 194.432C313.455 194.432 314.431 193.457 314.431 192.253C314.431 191.05 313.455 190.074 312.252 190.074C311.049 190.074 310.073 191.05 310.073 192.253C310.073 193.457 311.049 194.432 312.252 194.432Z" fill="#9DD3FF"/>
<path opacity="0.67" d="M157.546 171.553C158.749 171.553 159.725 170.578 159.725 169.374C159.725 168.171 158.749 167.195 157.546 167.195C156.342 167.195 155.367 168.171 155.367 169.374C155.367 170.578 156.342 171.553 157.546 171.553Z" fill="#9DD3FF"/>
<path opacity="0.67" d="M230.541 144.862C231.744 144.862 232.72 143.886 232.72 142.683C232.72 141.479 231.744 140.504 230.541 140.504C229.338 140.504 228.362 141.479 228.362 142.683C228.362 143.886 229.338 144.862 230.541 144.862Z" fill="#9DD3FF"/>
<path opacity="0.67" d="M301.902 175.912C303.105 175.912 304.081 174.936 304.081 173.733C304.081 172.529 303.105 171.554 301.902 171.554C300.698 171.554 299.723 172.529 299.723 173.733C299.723 174.936 300.698 175.912 301.902 175.912Z" fill="#9DD3FF"/>
<path opacity="0.66" d="M140.659 185.172C141.862 185.172 142.838 184.197 142.838 182.993C142.838 181.79 141.862 180.814 140.659 180.814C139.455 180.814 138.48 181.79 138.48 182.993C138.48 184.197 139.455 185.172 140.659 185.172Z" fill="#9DD3FF"/>
<path opacity="0.66" d="M208.751 143.227C209.955 143.227 210.93 142.252 210.93 141.048C210.93 139.845 209.955 138.869 208.751 138.869C207.548 138.869 206.572 139.845 206.572 141.048C206.572 142.252 207.548 143.227 208.751 143.227Z" fill="#9DD3FF"/>
<path opacity="0.66" d="M287.194 159.57C288.397 159.57 289.373 158.594 289.373 157.391C289.373 156.187 288.397 155.212 287.194 155.212C285.991 155.212 285.015 156.187 285.015 157.391C285.015 158.594 285.991 159.57 287.194 159.57Z" fill="#9DD3FF"/>
<path opacity="0.65" d="M126.496 202.331C127.85 202.331 128.947 201.234 128.947 199.88C128.947 198.526 127.85 197.429 126.496 197.429C125.142 197.429 124.044 198.526 124.044 199.88C124.044 201.234 125.142 202.331 126.496 202.331Z" fill="#9DD3FF"/>
<path opacity="0.65" d="M186.417 146.223C187.771 146.223 188.868 145.125 188.868 143.772C188.868 142.418 187.771 141.32 186.417 141.32C185.063 141.32 183.966 142.418 183.966 143.772C183.966 145.125 185.063 146.223 186.417 146.223Z" fill="#9DD3FF"/>
<path opacity="0.65" d="M269.217 146.223C270.571 146.223 271.669 145.125 271.669 143.772C271.669 142.418 270.571 141.32 269.217 141.32C267.863 141.32 266.766 142.418 266.766 143.772C266.766 145.125 267.863 146.223 269.217 146.223Z" fill="#9DD3FF"/>
<path opacity="0.65" d="M329.139 203.966C330.493 203.966 331.59 202.869 331.59 201.515C331.59 200.161 330.493 199.063 329.139 199.063C327.785 199.063 326.687 200.161 326.687 201.515C326.687 202.869 327.785 203.966 329.139 203.966Z" fill="#9DD3FF"/>
<path opacity="0.64" d="M164.627 153.85C165.981 153.85 167.078 152.752 167.078 151.399C167.078 150.045 165.981 148.947 164.627 148.947C163.273 148.947 162.176 150.045 162.176 151.399C162.176 152.752 163.273 153.85 164.627 153.85Z" fill="#9DD3FF"/>
<path opacity="0.64" d="M247.973 136.963C249.326 136.963 250.424 135.866 250.424 134.512C250.424 133.158 249.326 132.061 247.973 132.061C246.619 132.061 245.521 133.158 245.521 134.512C245.521 135.866 246.619 136.963 247.973 136.963Z" fill="#9DD3FF"/>
<path opacity="0.64" d="M320.423 182.176C321.777 182.176 322.874 181.079 322.874 179.725C322.874 178.371 321.777 177.273 320.423 177.273C319.069 177.273 317.972 178.371 317.972 179.725C317.972 181.079 319.069 182.176 320.423 182.176Z" fill="#9DD3FF"/>
<path opacity="0.63" d="M143.927 165.834C145.281 165.834 146.379 164.737 146.379 163.383C146.379 162.029 145.281 160.932 143.927 160.932C142.573 160.932 141.476 162.029 141.476 163.383C141.476 164.737 142.573 165.834 143.927 165.834Z" fill="#9DD3FF"/>
<path opacity="0.63" d="M224.549 131.515C225.903 131.515 227 130.417 227 129.064C227 127.71 225.903 126.612 224.549 126.612C223.195 126.612 222.097 127.71 222.097 129.064C222.097 130.417 223.195 131.515 224.549 131.515Z" fill="#9DD3FF"/>
<path opacity="0.63" d="M306.805 162.566C308.158 162.566 309.256 161.468 309.256 160.114C309.256 158.761 308.158 157.663 306.805 157.663C305.451 157.663 304.353 158.761 304.353 160.114C304.353 161.468 305.451 162.566 306.805 162.566Z" fill="#9DD3FF"/>
<path opacity="0.62" d="M125.951 182.176C127.305 182.176 128.402 181.079 128.402 179.725C128.402 178.371 127.305 177.273 125.951 177.273C124.597 177.273 123.499 178.371 123.499 179.725C123.499 181.079 124.597 182.176 125.951 182.176Z" fill="#9DD3FF"/>
<path opacity="0.62" d="M200.035 130.97C201.389 130.97 202.487 129.873 202.487 128.519C202.487 127.165 201.389 126.067 200.035 126.067C198.682 126.067 197.584 127.165 197.584 128.519C197.584 129.873 198.682 130.97 200.035 130.97Z" fill="#9DD3FF"/>
<path opacity="0.61" d="M289.373 145.134C290.727 145.134 291.824 144.037 291.824 142.683C291.824 141.329 290.727 140.231 289.373 140.231C288.019 140.231 286.922 141.329 286.922 142.683C286.922 144.037 288.019 145.134 289.373 145.134Z" fill="#9DD3FF"/>
<path opacity="0.61" d="M111.243 202.876C112.597 202.876 113.694 201.779 113.694 200.425C113.694 199.071 112.597 197.974 111.243 197.974C109.889 197.974 108.792 199.071 108.792 200.425C108.792 201.779 109.889 202.876 111.243 202.876Z" fill="#9DD3FF"/>
<path opacity="0.61" d="M175.522 135.873C176.876 135.873 177.973 134.776 177.973 133.422C177.973 132.068 176.876 130.971 175.522 130.971C174.168 130.971 173.071 132.068 173.071 133.422C173.071 134.776 174.168 135.873 175.522 135.873Z" fill="#9DD3FF"/>
<path opacity="0.6" d="M268.128 131.787C269.632 131.787 270.852 130.568 270.852 129.064C270.852 127.559 269.632 126.34 268.128 126.34C266.624 126.34 265.404 127.559 265.404 129.064C265.404 130.568 266.624 131.787 268.128 131.787Z" fill="#9DD3FF"/>
<path opacity="0.6" d="M338.399 192.799C339.904 192.799 341.123 191.58 341.123 190.075C341.123 188.571 339.904 187.352 338.399 187.352C336.895 187.352 335.676 188.571 335.676 190.075C335.676 191.58 336.895 192.799 338.399 192.799Z" fill="#9DD3FF"/>
<path opacity="0.59" d="M151.554 145.951C153.058 145.951 154.277 144.732 154.277 143.228C154.277 141.723 153.058 140.504 151.554 140.504C150.049 140.504 148.83 141.723 148.83 143.228C148.83 144.732 150.049 145.951 151.554 145.951Z" fill="#9DD3FF"/>
<path opacity="0.59" d="M243.615 122.527C245.119 122.527 246.338 121.308 246.338 119.804C246.338 118.3 245.119 117.08 243.615 117.08C242.11 117.08 240.891 118.3 240.891 119.804C240.891 121.308 242.11 122.527 243.615 122.527Z" fill="#9DD3FF"/>
<path opacity="0.59" d="M326.96 168.83C328.464 168.83 329.683 167.611 329.683 166.107C329.683 164.602 328.464 163.383 326.96 163.383C325.456 163.383 324.236 164.602 324.236 166.107C324.236 167.611 325.456 168.83 326.96 168.83Z" fill="#9DD3FF"/>
<path opacity="0.58" d="M129.764 161.204C131.268 161.204 132.488 159.985 132.488 158.481C132.488 156.976 131.268 155.757 129.764 155.757C128.26 155.757 127.04 156.976 127.04 158.481C127.04 159.985 128.26 161.204 129.764 161.204Z" fill="#9DD3FF"/>
<path opacity="0.58" d="M217.467 118.169C218.971 118.169 220.191 116.95 220.191 115.445C220.191 113.941 218.971 112.722 217.467 112.722C215.963 112.722 214.744 113.941 214.744 115.445C214.744 116.95 215.963 118.169 217.467 118.169Z" fill="#9DD3FF"/>
<path opacity="0.58" d="M311.162 148.129C312.667 148.129 313.886 146.91 313.886 145.405C313.886 143.901 312.667 142.682 311.162 142.682C309.658 142.682 308.439 143.901 308.439 145.405C308.439 146.91 309.658 148.129 311.162 148.129Z" fill="#9DD3FF"/>
<path opacity="0.57" d="M110.698 180.815C112.203 180.815 113.422 179.595 113.422 178.091C113.422 176.587 112.203 175.367 110.698 175.367C109.194 175.367 107.975 176.587 107.975 178.091C107.975 179.595 109.194 180.815 110.698 180.815Z" fill="#9DD3FF"/>
<path opacity="0.57" d="M190.23 119.803C191.734 119.803 192.954 118.583 192.954 117.079C192.954 115.575 191.734 114.355 190.23 114.355C188.726 114.355 187.507 115.575 187.507 117.079C187.507 118.583 188.726 119.803 190.23 119.803Z" fill="#9DD3FF"/>
<path opacity="0.57" d="M289.918 130.153C291.422 130.153 292.641 128.934 292.641 127.43C292.641 125.925 291.422 124.706 289.918 124.706C288.413 124.706 287.194 125.925 287.194 127.43C287.194 128.934 288.413 130.153 289.918 130.153Z" fill="#9DD3FF"/>
<path opacity="0.56" d="M96.5347 204.782C98.039 204.782 99.2584 203.563 99.2584 202.059C99.2584 200.554 98.039 199.335 96.5347 199.335C95.0305 199.335 93.811 200.554 93.811 202.059C93.811 203.563 95.0305 204.782 96.5347 204.782Z" fill="#9DD3FF"/>
<path opacity="0.56" d="M162.993 126.885C164.497 126.885 165.717 125.665 165.717 124.161C165.717 122.657 164.497 121.438 162.993 121.438C161.489 121.438 160.27 122.657 160.27 124.161C160.27 125.665 161.489 126.885 162.993 126.885Z" fill="#9DD3FF"/>
<path opacity="0.56" d="M265.404 116.535C266.908 116.535 268.128 115.316 268.128 113.812C268.128 112.307 266.908 111.088 265.404 111.088C263.9 111.088 262.68 112.307 262.68 113.812C262.68 115.316 263.9 116.535 265.404 116.535Z" fill="#9DD3FF"/>
<path opacity="0.56" d="M347.115 179.997C348.77 179.997 350.111 178.656 350.111 177.001C350.111 175.346 348.77 174.005 347.115 174.005C345.461 174.005 344.119 175.346 344.119 177.001C344.119 178.656 345.461 179.997 347.115 179.997Z" fill="#9DD3FF"/>
<path opacity="0.55" d="M137.39 140.231C139.045 140.231 140.387 138.89 140.387 137.235C140.387 135.581 139.045 134.239 137.39 134.239C135.736 134.239 134.394 135.581 134.394 137.235C134.394 138.89 135.736 140.231 137.39 140.231Z" fill="#9DD3FF"/>
<path opacity="0.55" d="M238.167 108.637C239.822 108.637 241.164 107.295 241.164 105.641C241.164 103.986 239.822 102.645 238.167 102.645C236.513 102.645 235.171 103.986 235.171 105.641C235.171 107.295 236.513 108.637 238.167 108.637Z" fill="#9DD3FF"/>
<path opacity="0.55" d="M332.952 154.939C334.607 154.939 335.948 153.598 335.948 151.943C335.948 150.289 334.607 148.947 332.952 148.947C331.297 148.947 329.956 150.289 329.956 151.943C329.956 153.598 331.297 154.939 332.952 154.939Z" fill="#9DD3FF"/>
<path opacity="0.54" d="M114.511 158.207C116.166 158.207 117.507 156.866 117.507 155.211C117.507 153.556 116.166 152.215 114.511 152.215C112.856 152.215 111.515 153.556 111.515 155.211C111.515 156.866 112.856 158.207 114.511 158.207Z" fill="#9DD3FF"/>
<path opacity="0.54" d="M208.751 105.913C210.406 105.913 211.747 104.572 211.747 102.917C211.747 101.262 210.406 99.9209 208.751 99.9209C207.097 99.9209 205.755 101.262 205.755 102.917C205.755 104.572 207.097 105.913 208.751 105.913Z" fill="#9DD3FF"/>
<path opacity="0.54" d="M313.341 133.149C314.996 133.149 316.337 131.808 316.337 130.153C316.337 128.499 314.996 127.157 313.341 127.157C311.687 127.157 310.345 128.499 310.345 130.153C310.345 131.808 311.687 133.149 313.341 133.149Z" fill="#9DD3FF"/>
<path opacity="0.53" d="M95.4452 181.087C97.0998 181.087 98.4412 179.745 98.4412 178.091C98.4412 176.436 97.0998 175.095 95.4452 175.095C93.7905 175.095 92.4491 176.436 92.4491 178.091C92.4491 179.745 93.7905 181.087 95.4452 181.087Z" fill="#9DD3FF"/>
<path opacity="0.53" d="M178.79 109.181C180.445 109.181 181.786 107.839 181.786 106.185C181.786 104.53 180.445 103.188 178.79 103.188C177.136 103.188 175.794 104.53 175.794 106.185C175.794 107.839 177.136 109.181 178.79 109.181Z" fill="#9DD3FF"/>
<path opacity="0.53" d="M289.373 114.629C291.028 114.629 292.369 113.287 292.369 111.633C292.369 109.978 291.028 108.637 289.373 108.637C287.718 108.637 286.377 109.978 286.377 111.633C286.377 113.287 287.718 114.629 289.373 114.629Z" fill="#9DD3FF"/>
<path opacity="0.52" d="M366.181 195.25C367.836 195.25 369.177 193.909 369.177 192.254C369.177 190.599 367.836 189.258 366.181 189.258C364.527 189.258 363.185 190.599 363.185 192.254C363.185 193.909 364.527 195.25 366.181 195.25Z" fill="#9DD3FF"/>
<path opacity="0.52" d="M149.92 118.986C151.574 118.986 152.916 117.645 152.916 115.99C152.916 114.336 151.574 112.994 149.92 112.994C148.265 112.994 146.923 114.336 146.923 115.99C146.923 117.645 148.265 118.986 149.92 118.986Z" fill="#9DD3FF"/>
<path opacity="0.52" d="M261.591 101.555C263.246 101.555 264.587 100.213 264.587 98.5586C264.587 96.9039 263.246 95.5625 261.591 95.5625C259.936 95.5625 258.595 96.9039 258.595 98.5586C258.595 100.213 259.936 101.555 261.591 101.555Z" fill="#9DD3FF"/>
<path opacity="0.51" d="M354.742 166.379C356.396 166.379 357.738 165.037 357.738 163.383C357.738 161.728 356.396 160.387 354.742 160.387C353.087 160.387 351.746 161.728 351.746 163.383C351.746 165.037 353.087 166.379 354.742 166.379Z" fill="#9DD3FF"/>
<path opacity="0.51" d="M122.683 135.056C124.488 135.056 125.951 133.593 125.951 131.788C125.951 129.983 124.488 128.52 122.683 128.52C120.878 128.52 119.414 129.983 119.414 131.788C119.414 133.593 120.878 135.056 122.683 135.056Z" fill="#9DD3FF"/>
<path opacity="0.5" d="M231.086 94.7449C232.891 94.7449 234.354 93.2816 234.354 91.4764C234.354 89.6713 232.891 88.208 231.086 88.208C229.28 88.208 227.817 89.6713 227.817 91.4764C227.817 93.2816 229.28 94.7449 231.086 94.7449Z" fill="#9DD3FF"/>
<path opacity="0.5" d="M337.31 140.504C339.115 140.504 340.578 139.04 340.578 137.235C340.578 135.43 339.115 133.967 337.31 133.967C335.505 133.967 334.041 135.43 334.041 137.235C334.041 139.04 335.505 140.504 337.31 140.504Z" fill="#9DD3FF"/>
<path opacity="0.5" d="M98.7141 156.302C100.519 156.302 101.982 154.838 101.982 153.033C101.982 151.228 100.519 149.765 98.7141 149.765C96.9089 149.765 95.4456 151.228 95.4456 153.033C95.4456 154.838 96.9089 156.302 98.7141 156.302Z" fill="#9DD3FF"/>
<path opacity="0.49" d="M198.946 93.656C200.752 93.656 202.215 92.1927 202.215 90.3876C202.215 88.5825 200.752 87.1191 198.946 87.1191C197.141 87.1191 195.678 88.5825 195.678 90.3876C195.678 92.1927 197.141 93.656 198.946 93.656Z" fill="#9DD3FF"/>
<path opacity="0.49" d="M314.975 117.625C316.78 117.625 318.244 116.161 318.244 114.356C318.244 112.551 316.78 111.088 314.975 111.088C313.17 111.088 311.707 112.551 311.707 114.356C311.707 116.161 313.17 117.625 314.975 117.625Z" fill="#9DD3FF"/>
<path opacity="0.48" d="M79.6478 182.449C81.4529 182.449 82.9162 180.986 82.9162 179.181C82.9162 177.375 81.4529 175.912 79.6478 175.912C77.8427 175.912 76.3793 177.375 76.3793 179.181C76.3793 180.986 77.8427 182.449 79.6478 182.449Z" fill="#9DD3FF"/>
<path opacity="0.48" d="M166.806 99.6482C168.611 99.6482 170.075 98.1849 170.075 96.3798C170.075 94.5747 168.611 93.1113 166.806 93.1113C165.001 93.1113 163.538 94.5747 163.538 96.3798C163.538 98.1849 165.001 99.6482 166.806 99.6482Z" fill="#9DD3FF"/>
<path opacity="0.48" d="M287.194 99.1033C288.999 99.1033 290.462 97.64 290.462 95.8348C290.462 94.0297 288.999 92.5664 287.194 92.5664C285.389 92.5664 283.926 94.0297 283.926 95.8348C283.926 97.64 285.389 99.1033 287.194 99.1033Z" fill="#9DD3FF"/>
<path opacity="0.48" d="M375.442 182.449C377.247 182.449 378.71 180.986 378.71 179.181C378.71 177.375 377.247 175.912 375.442 175.912C373.637 175.912 372.173 177.375 372.173 179.181C372.173 180.986 373.637 182.449 375.442 182.449Z" fill="#9DD3FF"/>
<path opacity="0.47" d="M135.756 112.177C137.561 112.177 139.025 110.713 139.025 108.908C139.025 107.103 137.561 105.64 135.756 105.64C133.951 105.64 132.488 107.103 132.488 108.908C132.488 110.713 133.951 112.177 135.756 112.177Z" fill="#9DD3FF"/>
<path opacity="0.47" d="M256.144 87.1189C257.949 87.1189 259.412 85.6556 259.412 83.8505C259.412 82.0454 257.949 80.582 256.144 80.582C254.339 80.582 252.876 82.0454 252.876 83.8505C252.876 85.6556 254.339 87.1189 256.144 87.1189Z" fill="#9DD3FF"/>
<path opacity="0.47" d="M361.278 151.943C363.084 151.943 364.547 150.48 364.547 148.675C364.547 146.87 363.084 145.406 361.278 145.406C359.473 145.406 358.01 146.87 358.01 148.675C358.01 150.48 359.473 151.943 361.278 151.943Z" fill="#9DD3FF"/>
<path opacity="0.46" d="M106.885 130.97C108.84 130.97 110.425 129.385 110.425 127.429C110.425 125.474 108.84 123.889 106.885 123.889C104.929 123.889 103.344 125.474 103.344 127.429C103.344 129.385 104.929 130.97 106.885 130.97Z" fill="#9DD3FF"/>
<path opacity="0.46" d="M222.37 81.399C224.326 81.399 225.911 79.8137 225.911 77.8582C225.911 75.9027 224.326 74.3174 222.37 74.3174C220.414 74.3174 218.829 75.9027 218.829 77.8582C218.829 79.8137 220.414 81.399 222.37 81.399Z" fill="#9DD3FF"/>
<path opacity="0.46" d="M340.579 124.434C342.534 124.434 344.119 122.849 344.119 120.893C344.119 118.938 342.534 117.353 340.579 117.353C338.623 117.353 337.038 118.938 337.038 120.893C337.038 122.849 338.623 124.434 340.579 124.434Z" fill="#9DD3FF"/>
<path opacity="0.45" d="M82.9163 156.029C84.8718 156.029 86.4571 154.444 86.4571 152.488C86.4571 150.533 84.8718 148.947 82.9163 148.947C80.9608 148.947 79.3755 150.533 79.3755 152.488C79.3755 154.444 80.9608 156.029 82.9163 156.029Z" fill="#9DD3FF"/>
<path opacity="0.45" d="M187.506 82.4888C189.462 82.4888 191.047 80.9036 191.047 78.948C191.047 76.9925 189.462 75.4072 187.506 75.4072C185.551 75.4072 183.966 76.9925 183.966 78.948C183.966 80.9036 185.551 82.4888 187.506 82.4888Z" fill="#9DD3FF"/>
<path opacity="0.45" d="M314.431 101.554C316.386 101.554 317.972 99.969 317.972 98.0135C317.972 96.0579 316.386 94.4727 314.431 94.4727C312.475 94.4727 310.89 96.0579 310.89 98.0135C310.89 99.969 312.475 101.554 314.431 101.554Z" fill="#9DD3FF"/>
<path opacity="0.45" d="M393.963 202.877C395.918 202.877 397.504 201.291 397.504 199.336C397.504 197.38 395.918 195.795 393.963 195.795C392.007 195.795 390.422 197.38 390.422 199.336C390.422 201.291 392.007 202.877 393.963 202.877Z" fill="#9DD3FF"/>
<path opacity="0.44" d="M63.3057 185.99C65.2612 185.99 66.8465 184.405 66.8465 182.449C66.8465 180.493 65.2612 178.908 63.3057 178.908C61.3501 178.908 59.7649 180.493 59.7649 182.449C59.7649 184.405 61.3501 185.99 63.3057 185.99Z" fill="#9DD3FF"/>
<path opacity="0.44" d="M153.188 90.6597C155.143 90.6597 156.729 89.0745 156.729 87.1189C156.729 85.1634 155.143 83.5781 153.188 83.5781C151.232 83.5781 149.647 85.1634 149.647 87.1189C149.647 89.0745 151.232 90.6597 153.188 90.6597Z" fill="#9DD3FF"/>
<path opacity="0.44" d="M283.925 83.5787C285.881 83.5787 287.466 81.9934 287.466 80.0379C287.466 78.0823 285.881 76.4971 283.925 76.4971C281.97 76.4971 280.385 78.0823 280.385 80.0379C280.385 81.9934 281.97 83.5787 283.925 83.5787Z" fill="#9DD3FF"/>
<path opacity="0.44" d="M383.613 168.558C385.568 168.558 387.154 166.973 387.154 165.017C387.154 163.062 385.568 161.477 383.613 161.477C381.657 161.477 380.072 163.062 380.072 165.017C380.072 166.973 381.657 168.558 383.613 168.558Z" fill="#9DD3FF"/>
<path opacity="0.43" d="M120.503 106.457C122.459 106.457 124.044 104.871 124.044 102.916C124.044 100.96 122.459 99.375 120.503 99.375C118.548 99.375 116.962 100.96 116.962 102.916C116.962 104.871 118.548 106.457 120.503 106.457Z" fill="#9DD3FF"/>
<path opacity="0.43" d="M249.062 72.1383C251.018 72.1383 252.603 70.553 252.603 68.5974C252.603 66.6419 251.018 65.0566 249.062 65.0566C247.107 65.0566 245.521 66.6419 245.521 68.5974C245.521 70.553 247.107 72.1383 249.062 72.1383Z" fill="#9DD3FF"/>
<path opacity="0.43" d="M366.181 136.419C368.137 136.419 369.722 134.833 369.722 132.878C369.722 130.922 368.137 129.337 366.181 129.337C364.226 129.337 362.64 130.922 362.64 132.878C362.64 134.833 364.226 136.419 366.181 136.419Z" fill="#9DD3FF"/>
<path opacity="0.42" d="M91.0873 129.064C93.1933 129.064 94.9005 127.357 94.9005 125.251C94.9005 123.145 93.1933 121.438 91.0873 121.438C88.9814 121.438 87.2742 123.145 87.2742 125.251C87.2742 127.357 88.9814 129.064 91.0873 129.064Z" fill="#9DD3FF"/>
<path opacity="0.42" d="M212.565 68.598C214.671 68.598 216.378 66.8908 216.378 64.7849C216.378 62.6789 214.671 60.9717 212.565 60.9717C210.459 60.9717 208.751 62.6789 208.751 64.7849C208.751 66.8908 210.459 68.598 212.565 68.598Z" fill="#9DD3FF"/>
<path opacity="0.42" d="M342.213 108.364C344.319 108.364 346.026 106.656 346.026 104.55C346.026 102.445 344.319 100.737 342.213 100.737C340.107 100.737 338.399 102.445 338.399 104.55C338.399 106.656 340.107 108.364 342.213 108.364Z" fill="#9DD3FF"/>
<path opacity="0.41" d="M66.0299 156.845C68.1358 156.845 69.843 155.138 69.843 153.032C69.843 150.926 68.1358 149.219 66.0299 149.219C63.9239 149.219 62.2167 150.926 62.2167 153.032C62.2167 155.138 63.9239 156.845 66.0299 156.845Z" fill="#9DD3FF"/>
<path opacity="0.41" d="M174.978 71.8666C177.084 71.8666 178.791 70.1594 178.791 68.0534C178.791 65.9475 177.084 64.2402 174.978 64.2402C172.872 64.2402 171.165 65.9475 171.165 68.0534C171.165 70.1594 172.872 71.8666 174.978 71.8666Z" fill="#9DD3FF"/>
<path opacity="0.4" d="M312.797 84.9398C314.903 84.9398 316.61 83.2326 316.61 81.1267C316.61 79.0207 314.903 77.3135 312.797 77.3135C310.691 77.3135 308.983 79.0207 308.983 81.1267C308.983 83.2326 310.691 84.9398 312.797 84.9398Z" fill="#9DD3FF"/>
<path opacity="0.4" d="M403.768 190.075C405.874 190.075 407.581 188.367 407.581 186.261C407.581 184.155 405.874 182.448 403.768 182.448C401.662 182.448 399.955 184.155 399.955 186.261C399.955 188.367 401.662 190.075 403.768 190.075Z" fill="#9DD3FF"/>
<path opacity="0.4" d="M47.5083 190.075C49.6143 190.075 51.3215 188.367 51.3215 186.261C51.3215 184.155 49.6143 182.448 47.5083 182.448C45.4023 182.448 43.6951 184.155 43.6951 186.261C43.6951 188.367 45.4023 190.075 47.5083 190.075Z" fill="#9DD3FF"/>
<path opacity="0.4" d="M138.48 83.306C140.586 83.306 142.293 81.5988 142.293 79.4929C142.293 77.3869 140.586 75.6797 138.48 75.6797C136.374 75.6797 134.667 77.3869 134.667 79.4929C134.667 81.5988 136.374 83.306 138.48 83.306Z" fill="#9DD3FF"/>
<path opacity="0.39" d="M278.478 68.0531C280.584 68.0531 282.291 66.3459 282.291 64.2399C282.291 62.134 280.584 60.4268 278.478 60.4268C276.372 60.4268 274.665 62.134 274.665 64.2399C274.665 66.3459 276.372 68.0531 278.478 68.0531Z" fill="#9DD3FF"/>
<path opacity="0.39" d="M390.694 153.578C392.8 153.578 394.508 151.87 394.508 149.764C394.508 147.658 392.8 145.951 390.694 145.951C388.588 145.951 386.881 147.658 386.881 149.764C386.881 151.87 388.588 153.578 390.694 153.578Z" fill="#9DD3FF"/>
<path opacity="0.38" d="M104.162 101.828C106.268 101.828 107.975 100.12 107.975 98.0143C107.975 95.9084 106.268 94.2012 104.162 94.2012C102.056 94.2012 100.349 95.9084 100.349 98.0143C100.349 100.12 102.056 101.828 104.162 101.828Z" fill="#9DD3FF"/>
<path opacity="0.38" d="M240.891 58.2474C242.997 58.2474 244.704 56.5402 244.704 54.4343C244.704 52.3283 242.997 50.6211 240.891 50.6211C238.785 50.6211 237.078 52.3283 237.078 54.4343C237.078 56.5402 238.785 58.2474 240.891 58.2474Z" fill="#9DD3FF"/>
<path opacity="0.38" d="M369.994 120.348C372.1 120.348 373.807 118.641 373.807 116.535C373.807 114.429 372.1 112.722 369.994 112.722C367.888 112.722 366.181 114.429 366.181 116.535C366.181 118.641 367.888 120.348 369.994 120.348Z" fill="#9DD3FF"/>
<path opacity="0.37" d="M74.2007 127.702C76.457 127.702 78.2862 125.873 78.2862 123.617C78.2862 121.36 76.457 119.531 74.2007 119.531C71.9443 119.531 70.1151 121.36 70.1151 123.617C70.1151 125.873 71.9443 127.702 74.2007 127.702Z" fill="#9DD3FF"/>
<path opacity="0.37" d="M201.125 56.341C203.381 56.341 205.211 54.5119 205.211 52.2555C205.211 49.9991 203.381 48.1699 201.125 48.1699C198.869 48.1699 197.04 49.9991 197.04 52.2555C197.04 54.5119 198.869 56.341 201.125 56.341Z" fill="#9DD3FF"/>
<path opacity="0.37" d="M342.758 91.7492C345.014 91.7492 346.843 89.9201 346.843 87.6637C346.843 85.4073 345.014 83.5781 342.758 83.5781C340.501 83.5781 338.672 85.4073 338.672 87.6637C338.672 89.9201 340.501 91.7492 342.758 91.7492Z" fill="#9DD3FF"/>
<path opacity="0.36" d="M49.1424 159.842C51.3988 159.842 53.2279 158.013 53.2279 155.756C53.2279 153.5 51.3988 151.671 49.1424 151.671C46.886 151.671 45.0569 153.5 45.0569 155.756C45.0569 158.013 46.886 159.842 49.1424 159.842Z" fill="#9DD3FF"/>
<path opacity="0.36" d="M161.359 62.3332C163.615 62.3332 165.444 60.504 165.444 58.2477C165.444 55.9913 163.615 54.1621 161.359 54.1621C159.102 54.1621 157.273 55.9913 157.273 58.2477C157.273 60.504 159.102 62.3332 161.359 62.3332Z" fill="#9DD3FF"/>
<path opacity="0.36" d="M309.528 68.8703C311.785 68.8703 313.614 67.0412 313.614 64.7848C313.614 62.5284 311.785 60.6992 309.528 60.6992C307.272 60.6992 305.443 62.5284 305.443 64.7848C305.443 67.0412 307.272 68.8703 309.528 68.8703Z" fill="#9DD3FF"/>
<path opacity="0.36" d="M413.029 175.639C415.285 175.639 417.114 173.81 417.114 171.553C417.114 169.297 415.285 167.468 413.029 167.468C410.773 167.468 408.943 169.297 408.943 171.553C408.943 173.81 410.773 175.639 413.029 175.639Z" fill="#9DD3FF"/>
<path opacity="0.35" d="M31.1662 196.339C33.4226 196.339 35.2517 194.51 35.2517 192.254C35.2517 189.997 33.4226 188.168 31.1662 188.168C28.9098 188.168 27.0806 189.997 27.0806 192.254C27.0806 194.51 28.9098 196.339 31.1662 196.339Z" fill="#9DD3FF"/>
<path opacity="0.35" d="M122.682 76.4973C124.939 76.4973 126.768 74.6681 126.768 72.4117C126.768 70.1553 124.939 68.3262 122.682 68.3262C120.426 68.3262 118.597 70.1553 118.597 72.4117C118.597 74.6681 120.426 76.4973 122.682 76.4973Z" fill="#9DD3FF"/>
<path opacity="0.35" d="M271.941 52.5275C274.198 52.5275 276.027 50.6984 276.027 48.442C276.027 46.1856 274.198 44.3564 271.941 44.3564C269.685 44.3564 267.856 46.1856 267.856 48.442C267.856 50.6984 269.685 52.5275 271.941 52.5275Z" fill="#9DD3FF"/>
<path opacity="0.35" d="M396.686 138.052C398.943 138.052 400.772 136.223 400.772 133.966C400.772 131.71 398.943 129.881 396.686 129.881C394.43 129.881 392.601 131.71 392.601 133.966C392.601 136.223 394.43 138.052 396.686 138.052Z" fill="#9DD3FF"/>
<path opacity="0.34" d="M87.2744 98.8303C89.5308 98.8303 91.3599 97.0011 91.3599 94.7447C91.3599 92.4883 89.5308 90.6592 87.2744 90.6592C85.018 90.6592 83.1888 92.4883 83.1888 94.7447C83.1888 97.0011 85.018 98.8303 87.2744 98.8303Z" fill="#9DD3FF"/>
<path opacity="0.34" d="M230.541 44.3566C232.797 44.3566 234.627 42.5275 234.627 40.2711C234.627 38.0147 232.797 36.1855 230.541 36.1855C228.285 36.1855 226.456 38.0147 226.456 40.2711C226.456 42.5275 228.285 44.3566 230.541 44.3566Z" fill="#9DD3FF"/>
<path opacity="0.34" d="M372.718 103.734C374.975 103.734 376.804 101.904 376.804 99.648C376.804 97.3917 374.975 95.5625 372.718 95.5625C370.462 95.5625 368.633 97.3917 368.633 99.648C368.633 101.904 370.462 103.734 372.718 103.734Z" fill="#9DD3FF"/>
<path opacity="0.33" d="M56.7691 128.52C59.1759 128.52 61.127 126.568 61.127 124.162C61.127 121.755 59.1759 119.804 56.7691 119.804C54.3623 119.804 52.4112 121.755 52.4112 124.162C52.4112 126.568 54.3623 128.52 56.7691 128.52Z" fill="#9DD3FF"/>
<path opacity="0.33" d="M188.051 44.6299C190.458 44.6299 192.409 42.6788 192.409 40.272C192.409 37.8652 190.458 35.9141 188.051 35.9141C185.644 35.9141 183.693 37.8652 183.693 40.272C183.693 42.6788 185.644 44.6299 188.051 44.6299Z" fill="#9DD3FF"/>
<path opacity="0.33" d="M341.668 74.5899C344.075 74.5899 346.026 72.6388 346.026 70.2319C346.026 67.8251 344.075 65.874 341.668 65.874C339.261 65.874 337.31 67.8251 337.31 70.2319C337.31 72.6388 339.261 74.5899 341.668 74.5899Z" fill="#9DD3FF"/>
<path opacity="0.33" d="M432.094 202.605C434.501 202.605 436.452 200.653 436.452 198.247C436.452 195.84 434.501 193.889 432.094 193.889C429.688 193.889 427.737 195.84 427.737 198.247C427.737 200.653 429.688 202.605 432.094 202.605Z" fill="#9DD3FF"/>
<path opacity="0.32" d="M32.2556 163.928C34.6624 163.928 36.6135 161.977 36.6135 159.57C36.6135 157.163 34.6624 155.212 32.2556 155.212C29.8487 155.212 27.8976 157.163 27.8976 159.57C27.8976 161.977 29.8487 163.928 32.2556 163.928Z" fill="#9DD3FF"/>
<path opacity="0.32" d="M146.106 53.3447C148.513 53.3447 150.464 51.3936 150.464 48.9868C150.464 46.58 148.513 44.6289 146.106 44.6289C143.699 44.6289 141.748 46.58 141.748 48.9868C141.748 51.3936 143.699 53.3447 146.106 53.3447Z" fill="#9DD3FF"/>
<path opacity="0.32" d="M304.625 52.2559C307.032 52.2559 308.983 50.3048 308.983 47.898C308.983 45.4911 307.032 43.54 304.625 43.54C302.219 43.54 300.268 45.4911 300.268 47.898C300.268 50.3048 302.219 52.2559 304.625 52.2559Z" fill="#9DD3FF"/>
<path opacity="0.31" d="M421.2 160.659C423.607 160.659 425.558 158.708 425.558 156.301C425.558 153.894 423.607 151.943 421.2 151.943C418.793 151.943 416.842 153.894 416.842 156.301C416.842 158.708 418.793 160.659 421.2 160.659Z" fill="#9DD3FF"/>
<path opacity="0.31" d="M15.3686 204.238C17.7754 204.238 19.7265 202.287 19.7265 199.88C19.7265 197.474 17.7754 195.522 15.3686 195.522C12.9618 195.522 11.0107 197.474 11.0107 199.88C11.0107 202.287 12.9618 204.238 15.3686 204.238Z" fill="#9DD3FF"/>
<path opacity="0.31" d="M105.796 71.3213C108.202 71.3213 110.154 69.3702 110.154 66.9634C110.154 64.5566 108.202 62.6055 105.796 62.6055C103.389 62.6055 101.438 64.5566 101.438 66.9634C101.438 69.3702 103.389 71.3213 105.796 71.3213Z" fill="#9DD3FF"/>
<path opacity="0.31" d="M263.77 37.0029C266.177 37.0029 268.128 35.0518 268.128 32.645C268.128 30.2382 266.177 28.2871 263.77 28.2871C261.363 28.2871 259.412 30.2382 259.412 32.645C259.412 35.0518 261.363 37.0029 263.77 37.0029Z" fill="#9DD3FF"/>
<path opacity="0.3" d="M401.589 121.438C403.996 121.438 405.947 119.486 405.947 117.08C405.947 114.673 403.996 112.722 401.589 112.722C399.182 112.722 397.231 114.673 397.231 117.08C397.231 119.486 399.182 121.438 401.589 121.438Z" fill="#9DD3FF"/>
<path opacity="0.3" d="M69.8426 96.9238C72.2494 96.9238 74.2005 94.9727 74.2005 92.5659C74.2005 90.1591 72.2494 88.208 69.8426 88.208C67.4358 88.208 65.4847 90.1591 65.4847 92.5659C65.4847 94.9727 67.4358 96.9238 69.8426 96.9238Z" fill="#9DD3FF"/>
<path opacity="0.29" d="M219.646 31.0108C222.053 31.0108 224.004 29.0596 224.004 26.6528C224.004 24.246 222.053 22.2949 219.646 22.2949C217.239 22.2949 215.288 24.246 215.288 26.6528C215.288 29.0596 217.239 31.0108 219.646 31.0108Z" fill="#9DD3FF"/>
<path opacity="0.29" d="M373.808 86.0293C376.214 86.0293 378.165 84.0782 378.165 81.6714C378.165 79.2646 376.214 77.3135 373.808 77.3135C371.401 77.3135 369.45 79.2646 369.45 81.6714C369.45 84.0782 371.401 86.0293 373.808 86.0293Z" fill="#9DD3FF"/>
<path opacity="0.29" d="M38.7925 130.153C41.1993 130.153 43.1504 128.202 43.1504 125.795C43.1504 123.389 41.1993 121.438 38.7925 121.438C36.3856 121.438 34.4345 123.389 34.4345 125.795C34.4345 128.202 36.3856 130.153 38.7925 130.153Z" fill="#9DD3FF"/>
<path opacity="0.28" d="M174.433 33.7344C176.839 33.7344 178.79 31.7833 178.79 29.3765C178.79 26.9697 176.839 25.0186 174.433 25.0186C172.026 25.0186 170.075 26.9697 170.075 29.3765C170.075 31.7833 172.026 33.7344 174.433 33.7344Z" fill="#9DD3FF"/>
<path opacity="0.28" d="M338.944 57.4305C341.501 57.4305 343.574 55.3574 343.574 52.8002C343.574 50.243 341.501 48.1699 338.944 48.1699C336.387 48.1699 334.314 50.243 334.314 52.8002C334.314 55.3574 336.387 57.4305 338.944 57.4305Z" fill="#9DD3FF"/>
<path opacity="0.28" d="M442.445 188.169C445.002 188.169 447.075 186.096 447.075 183.538C447.075 180.981 445.002 178.908 442.445 178.908C439.887 178.908 437.814 180.981 437.814 183.538C437.814 186.096 439.887 188.169 442.445 188.169Z" fill="#9DD3FF"/>
<path opacity="0.27" d="M14.8242 169.647C17.3814 169.647 19.4545 167.574 19.4545 165.017C19.4545 162.46 17.3814 160.387 14.8242 160.387C12.2669 160.387 10.1939 162.46 10.1939 165.017C10.1939 167.574 12.2669 169.647 14.8242 169.647Z" fill="#9DD3FF"/>
<path opacity="0.27" d="M129.764 45.991C132.321 45.991 134.394 43.918 134.394 41.3608C134.394 38.8035 132.321 36.7305 129.764 36.7305C127.207 36.7305 125.134 38.8035 125.134 41.3608C125.134 43.918 127.207 45.991 129.764 45.991Z" fill="#9DD3FF"/>
<path opacity="0.27" d="M298.633 35.6414C301.191 35.6414 303.264 33.5684 303.264 31.0111C303.264 28.4539 301.191 26.3809 298.633 26.3809C296.076 26.3809 294.003 28.4539 294.003 31.0111C294.003 33.5684 296.076 35.6414 298.633 35.6414Z" fill="#9DD3FF"/>
<path opacity="0.27" d="M428.282 144.589C430.839 144.589 432.912 142.516 432.912 139.958C432.912 137.401 430.839 135.328 428.282 135.328C425.724 135.328 423.651 137.401 423.651 139.958C423.651 142.516 425.724 144.589 428.282 144.589Z" fill="#9DD3FF"/>
<path opacity="0.26" d="M88.3639 67.2352C90.9212 67.2352 92.9942 65.1621 92.9942 62.6049C92.9942 60.0477 90.9212 57.9746 88.3639 57.9746C85.8067 57.9746 83.7336 60.0477 83.7336 62.6049C83.7336 65.1621 85.8067 67.2352 88.3639 67.2352Z" fill="#9DD3FF"/>
<path opacity="0.26" d="M253.965 22.0223C256.522 22.0223 258.595 19.9492 258.595 17.392C258.595 14.8348 256.522 12.7617 253.965 12.7617C251.407 12.7617 249.334 14.8348 249.334 17.392C249.334 19.9492 251.407 22.0223 253.965 22.0223Z" fill="#9DD3FF"/>
<path opacity="0.26" d="M404.857 103.733C407.415 103.733 409.488 101.66 409.488 99.1029C409.488 96.5457 407.415 94.4727 404.857 94.4727C402.3 94.4727 400.227 96.5457 400.227 99.1029C400.227 101.66 402.3 103.733 404.857 103.733Z" fill="#9DD3FF"/>
<path opacity="0.25" d="M51.3218 96.6522C53.879 96.6522 55.952 94.5791 55.952 92.0219C55.952 89.4647 53.879 87.3916 51.3218 87.3916C48.7645 87.3916 46.6915 89.4647 46.6915 92.0219C46.6915 94.5791 48.7645 96.6522 51.3218 96.6522Z" fill="#9DD3FF"/>
<path opacity="0.25" d="M206.572 18.2088C209.13 18.2088 211.203 16.1358 211.203 13.5785C211.203 11.0213 209.13 8.94824 206.572 8.94824C204.015 8.94824 201.942 11.0213 201.942 13.5785C201.942 16.1358 204.015 18.2088 206.572 18.2088Z" fill="#9DD3FF"/>
<path opacity="0.25" d="M373.263 68.325C375.82 68.325 377.893 66.252 377.893 63.6947C377.893 61.1375 375.82 59.0645 373.263 59.0645C370.706 59.0645 368.633 61.1375 368.633 63.6947C368.633 66.252 370.706 68.325 373.263 68.325Z" fill="#9DD3FF"/>
<path opacity="0.24" d="M20.8161 133.695C23.3734 133.695 25.4464 131.622 25.4464 129.065C25.4464 126.508 23.3734 124.435 20.8161 124.435C18.2589 124.435 16.1859 126.508 16.1859 129.065C16.1859 131.622 18.2589 133.695 20.8161 133.695Z" fill="#9DD3FF"/>
<path opacity="0.24" d="M159.18 23.6571C161.737 23.6571 163.81 21.584 163.81 19.0268C163.81 16.4695 161.737 14.3965 159.18 14.3965C156.623 14.3965 154.55 16.4695 154.55 19.0268C154.55 21.584 156.623 23.6571 159.18 23.6571Z" fill="#9DD3FF"/>
<path opacity="0.24" d="M335.131 39.4549C337.689 39.4549 339.762 37.3819 339.762 34.8246C339.762 32.2674 337.689 30.1943 335.131 30.1943C332.574 30.1943 330.501 32.2674 330.501 34.8246C330.501 37.3819 332.574 39.4549 335.131 39.4549Z" fill="#9DD3FF"/>
<path opacity="0.24" d="M451.705 172.643C454.413 172.643 456.608 170.448 456.608 167.741C456.608 165.033 454.413 162.838 451.705 162.838C448.997 162.838 446.802 165.033 446.802 167.741C446.802 170.448 448.997 172.643 451.705 172.643Z" fill="#9DD3FF"/>
<path opacity="0.23" d="M-2.06307 177.001C0.644591 177.001 2.83959 174.806 2.83959 172.098C2.83959 169.39 0.644591 167.195 -2.06307 167.195C-4.77073 167.195 -6.96573 169.39 -6.96573 172.098C-6.96573 174.806 -4.77073 177.001 -2.06307 177.001Z" fill="#9DD3FF"/>
<path opacity="0.23" d="M112.877 39.7272C115.585 39.7272 117.78 37.5322 117.78 34.8245C117.78 32.1169 115.585 29.9219 112.877 29.9219C110.17 29.9219 107.975 32.1169 107.975 34.8245C107.975 37.5322 110.17 39.7272 112.877 39.7272Z" fill="#9DD3FF"/>
<path opacity="0.23" d="M290.463 19.026C293.17 19.026 295.365 16.831 295.365 14.1234C295.365 11.4157 293.17 9.2207 290.463 9.2207C287.755 9.2207 285.56 11.4157 285.56 14.1234C285.56 16.831 287.755 19.026 290.463 19.026Z" fill="#9DD3FF"/>
<path opacity="0.23" d="M433.729 126.885C436.436 126.885 438.631 124.69 438.631 121.983C438.631 119.275 436.436 117.08 433.729 117.08C431.021 117.08 428.826 119.275 428.826 121.983C428.826 124.69 431.021 126.885 433.729 126.885Z" fill="#9DD3FF"/>
<path opacity="0.22" d="M69.8428 64.2399C72.5505 64.2399 74.7455 62.0449 74.7455 59.3372C74.7455 56.6296 72.5505 54.4346 69.8428 54.4346C67.1352 54.4346 64.9402 56.6296 64.9402 59.3372C64.9402 62.0449 67.1352 64.2399 69.8428 64.2399Z" fill="#9DD3FF"/>
<path opacity="0.22" d="M242.525 7.58754C245.233 7.58754 247.428 5.39255 247.428 2.68488C247.428 -0.0227792 245.233 -2.21777 242.525 -2.21777C239.818 -2.21777 237.623 -0.0227792 237.623 2.68488C237.623 5.39255 239.818 7.58754 242.525 7.58754Z" fill="#9DD3FF"/>
<path opacity="0.22" d="M407.037 85.485C409.744 85.485 411.939 83.29 411.939 80.5823C411.939 77.8747 409.744 75.6797 407.037 75.6797C404.329 75.6797 402.134 77.8747 402.134 80.5823C402.134 83.29 404.329 85.485 407.037 85.485Z" fill="#9DD3FF"/>
<path opacity="0.21" d="M32.8003 98.0133C35.508 98.0133 37.703 95.8183 37.703 93.1107C37.703 90.403 35.508 88.208 32.8003 88.208C30.0926 88.208 27.8976 90.403 27.8976 93.1107C27.8976 95.8183 30.0926 98.0133 32.8003 98.0133Z" fill="#9DD3FF"/>
<path opacity="0.21" d="M192.409 6.49672C195.117 6.49672 197.312 4.30173 197.312 1.59406C197.312 -1.1136 195.117 -3.30859 192.409 -3.30859C189.702 -3.30859 187.507 -1.1136 187.507 1.59406C187.507 4.30173 189.702 6.49672 192.409 6.49672Z" fill="#9DD3FF"/>
<path opacity="0.21" d="M371.629 50.0768C374.336 50.0768 376.531 47.8818 376.531 45.1741C376.531 42.4665 374.336 40.2715 371.629 40.2715C368.921 40.2715 366.726 42.4665 366.726 45.1741C366.726 47.8818 368.921 50.0768 371.629 50.0768Z" fill="#9DD3FF"/>
<path opacity="0.2" d="M471.316 205.328C474.024 205.328 476.219 203.133 476.219 200.425C476.219 197.717 474.024 195.522 471.316 195.522C468.608 195.522 466.413 197.717 466.413 200.425C466.413 203.133 468.608 205.328 471.316 205.328Z" fill="#9DD3FF"/>
<path opacity="0.2" d="M2.83979 138.869C5.54745 138.869 7.74245 136.674 7.74245 133.966C7.74245 131.258 5.54745 129.063 2.83979 129.063C0.132128 129.063 -2.06287 131.258 -2.06287 133.966C-2.06287 136.674 0.132128 138.869 2.83979 138.869Z" fill="#9DD3FF"/>
<path opacity="0.2" d="M142.293 15.2135C145.001 15.2135 147.196 13.0185 147.196 10.3109C147.196 7.6032 145.001 5.4082 142.293 5.4082C139.585 5.4082 137.39 7.6032 137.39 10.3109C137.39 13.0185 139.585 15.2135 142.293 15.2135Z" fill="#9DD3FF"/>
<path opacity="0.19" d="M329.139 21.7497C331.846 21.7497 334.041 19.5547 334.041 16.847C334.041 14.1393 331.846 11.9443 329.139 11.9443C326.431 11.9443 324.236 14.1393 324.236 16.847C324.236 19.5547 326.431 21.7497 329.139 21.7497Z" fill="#9DD3FF"/>
<path opacity="0.19" d="M459.876 155.756C462.584 155.756 464.779 153.561 464.779 150.854C464.779 148.146 462.584 145.951 459.876 145.951C457.168 145.951 454.973 148.146 454.973 150.854C454.973 153.561 457.168 155.756 459.876 155.756Z" fill="#9DD3FF"/>
<path opacity="0.18" d="M94.3561 34.5522C97.2141 34.5522 99.5311 32.2353 99.5311 29.3772C99.5311 26.5191 97.2141 24.2021 94.3561 24.2021C91.498 24.2021 89.181 26.5191 89.181 29.3772C89.181 32.2353 91.498 34.5522 94.3561 34.5522Z" fill="#9DD3FF"/>
<path opacity="0.18" d="M281.202 2.9565C284.06 2.9565 286.377 0.639562 286.377 -2.21853C286.377 -5.07662 284.06 -7.39355 281.202 -7.39355C278.344 -7.39355 276.027 -5.07662 276.027 -2.21853C276.027 0.639562 278.344 2.9565 281.202 2.9565Z" fill="#9DD3FF"/>
<path opacity="0.18" d="M438.631 109.181C441.49 109.181 443.806 106.864 443.806 104.006C443.806 101.148 441.49 98.8311 438.631 98.8311C435.773 98.8311 433.456 101.148 433.456 104.006C433.456 106.864 435.773 109.181 438.631 109.181Z" fill="#9DD3FF"/>
<path opacity="0.17" d="M51.3214 63.4223C54.1795 63.4223 56.4964 61.1054 56.4964 58.2473C56.4964 55.3892 54.1795 53.0723 51.3214 53.0723C48.4633 53.0723 46.1464 55.3892 46.1464 58.2473C46.1464 61.1054 48.4633 63.4223 51.3214 63.4223Z" fill="#9DD3FF"/>
<path opacity="0.17" d="M407.581 66.6919C410.44 66.6919 412.756 64.3749 412.756 61.5168C412.756 58.6587 410.44 56.3418 407.581 56.3418C404.723 56.3418 402.406 58.6587 402.406 61.5168C402.406 64.3749 404.723 66.6919 407.581 66.6919Z" fill="#9DD3FF"/>
<path opacity="0.16" d="M13.7345 100.465C16.5926 100.465 18.9095 98.1484 18.9095 95.2903C18.9095 92.4322 16.5926 90.1152 13.7345 90.1152C10.8764 90.1152 8.55948 92.4322 8.55948 95.2903C8.55948 98.1484 10.8764 100.465 13.7345 100.465Z" fill="#9DD3FF"/>
<path opacity="0.16" d="M367.815 31.2836C370.673 31.2836 372.99 28.9667 372.99 26.1086C372.99 23.2505 370.673 20.9336 367.815 20.9336C364.957 20.9336 362.64 23.2505 362.64 26.1086C362.64 28.9667 364.957 31.2836 367.815 31.2836Z" fill="#9DD3FF"/>
<path opacity="0.16" d="M481.666 189.258C484.524 189.258 486.841 186.941 486.841 184.083C486.841 181.225 484.524 178.908 481.666 178.908C478.808 178.908 476.491 181.225 476.491 184.083C476.491 186.941 478.808 189.258 481.666 189.258Z" fill="#9DD3FF"/>
<path opacity="0.15" d="M124.861 7.85982C127.719 7.85982 130.036 5.54288 130.036 2.68479C130.036 -0.173296 127.719 -2.49023 124.861 -2.49023C122.003 -2.49023 119.686 -0.173296 119.686 2.68479C119.686 5.54288 122.003 7.85982 124.861 7.85982Z" fill="#9DD3FF"/>
<path opacity="0.15" d="M321.512 4.59029C324.37 4.59029 326.687 2.27335 326.687 -0.584738C326.687 -3.44283 324.37 -5.75977 321.512 -5.75977C318.654 -5.75977 316.337 -3.44283 316.337 -0.584738C316.337 2.27335 318.654 4.59029 321.512 4.59029Z" fill="#9DD3FF"/>
<path opacity="0.15" d="M466.958 138.052C469.816 138.052 472.133 135.735 472.133 132.877C472.133 130.019 469.816 127.702 466.958 127.702C464.1 127.702 461.783 130.019 461.783 132.877C461.783 135.735 464.1 138.052 466.958 138.052Z" fill="#9DD3FF"/>
<path opacity="0.14" d="M75.835 31.011C78.8435 31.011 81.2824 28.5721 81.2824 25.5636C81.2824 22.5551 78.8435 20.1162 75.835 20.1162C72.8265 20.1162 70.3876 22.5551 70.3876 25.5636C70.3876 28.5721 72.8265 31.011 75.835 31.011Z" fill="#9DD3FF"/>
<path opacity="0.14" d="M441.355 89.843C444.364 89.843 446.803 87.4042 446.803 84.3956C446.803 81.3871 444.364 78.9482 441.355 78.9482C438.347 78.9482 435.908 81.3871 435.908 84.3956C435.908 87.4042 438.347 89.843 441.355 89.843Z" fill="#9DD3FF"/>
<path opacity="0.13" d="M31.711 63.6956C34.7195 63.6956 37.1584 61.2567 37.1584 58.2482C37.1584 55.2397 34.7195 52.8008 31.711 52.8008C28.7025 52.8008 26.2636 55.2397 26.2636 58.2482C26.2636 61.2567 28.7025 63.6956 31.711 63.6956Z" fill="#9DD3FF"/>
<path opacity="0.13" d="M406.492 47.3528C409.501 47.3528 411.939 44.9139 411.939 41.9054C411.939 38.8969 409.501 36.458 406.492 36.458C403.484 36.458 401.045 38.8969 401.045 41.9054C401.045 44.9139 403.484 47.3528 406.492 47.3528Z" fill="#9DD3FF"/>
<path opacity="0.12" d="M-5.3315 105.096C-2.32299 105.096 0.115893 102.657 0.115893 99.6486C0.115893 96.6401 -2.32299 94.2012 -5.3315 94.2012C-8.34002 94.2012 -10.7789 96.6401 -10.7789 99.6486C-10.7789 102.657 -8.34002 105.096 -5.3315 105.096Z" fill="#9DD3FF"/>
<path opacity="0.12" d="M362.913 12.4895C365.922 12.4895 368.36 10.0506 368.36 7.04212C368.36 4.03361 365.922 1.59473 362.913 1.59473C359.905 1.59473 357.466 4.03361 357.466 7.04212C357.466 10.0506 359.905 12.4895 362.913 12.4895Z" fill="#9DD3FF"/>
<path opacity="0.12" d="M490.927 172.643C493.935 172.643 496.374 170.204 496.374 167.195C496.374 164.187 493.935 161.748 490.927 161.748C487.918 161.748 485.479 164.187 485.479 167.195C485.479 170.204 487.918 172.643 490.927 172.643Z" fill="#9DD3FF"/>
<path opacity="0.11" d="M106.34 1.05007C109.349 1.05007 111.787 -1.38882 111.787 -4.39733C111.787 -7.40584 109.349 -9.84473 106.34 -9.84473C103.332 -9.84473 100.893 -7.40584 100.893 -4.39733C100.893 -1.38882 103.332 1.05007 106.34 1.05007Z" fill="#9DD3FF"/>
<path opacity="0.1" d="M472.405 119.258C475.414 119.258 477.853 116.819 477.853 113.811C477.853 110.802 475.414 108.363 472.405 108.363C469.397 108.363 466.958 110.802 466.958 113.811C466.958 116.819 469.397 119.258 472.405 119.258Z" fill="#9DD3FF"/>
<path d="M29.8359 166.387L37.0078 158.277V156.32H25.5469V158.969H32.4844L25.3828 166.984V169H37.3008V166.387H29.8359ZM44.8359 163.762L48.4336 169H52.4297L46.9805 161.605L51.7617 156.32H47.8477L44.3438 160.164L43.3594 161.289V151H40.1016V169H43.3594V165.133L44.8359 163.762ZM62.7539 165.438L63.75 169H67.2188L61.7344 151.938H58.7461L53.1562 169H56.625L57.6328 165.438H62.7539ZM58.4414 162.637L60.2344 156.355L61.9805 162.637H58.4414ZM77.168 169H80.1211V156.32H76.8516V165.215C76.75 165.418 76.6289 165.602 76.4883 165.766C76.3477 165.93 76.1875 166.07 76.0078 166.188C75.7969 166.32 75.5508 166.422 75.2695 166.492C74.9961 166.562 74.6875 166.598 74.3438 166.598C73.9609 166.598 73.6367 166.551 73.3711 166.457C73.1055 166.363 72.8906 166.207 72.7266 165.988C72.5625 165.777 72.4414 165.496 72.3633 165.145C72.293 164.793 72.2578 164.359 72.2578 163.844V156.32H69V163.82C69 164.781 69.1055 165.605 69.3164 166.293C69.5352 166.973 69.8398 167.531 70.2305 167.969C70.6211 168.414 71.0898 168.738 71.6367 168.941C72.1836 169.145 72.7852 169.246 73.4414 169.246C74.1602 169.246 74.8203 169.066 75.4219 168.707C76.0312 168.348 76.5508 167.852 76.9805 167.219L77.168 169ZM89.2852 153.215H86.0273V156.32H83.1328V158.723H86.0273V164.488C86.0273 165.324 86.1367 166.043 86.3555 166.645C86.5742 167.238 86.8867 167.727 87.293 168.109C87.6914 168.5 88.1719 168.789 88.7344 168.977C89.3047 169.156 89.9375 169.246 90.6328 169.246C90.9922 169.246 91.3555 169.227 91.7227 169.188C92.0977 169.156 92.457 169.109 92.8008 169.047C93.1445 168.984 93.4688 168.906 93.7734 168.812C94.0781 168.711 94.3438 168.594 94.5703 168.461L94.2539 166.223C94.1055 166.262 93.9258 166.301 93.7148 166.34C93.5117 166.379 93.293 166.414 93.0586 166.445C92.8164 166.484 92.5625 166.516 92.2969 166.539C92.0391 166.562 91.7852 166.574 91.5352 166.574C91.1914 166.574 90.8789 166.535 90.5977 166.457C90.3242 166.379 90.0898 166.246 89.8945 166.059C89.6992 165.879 89.5469 165.637 89.4375 165.332C89.3359 165.02 89.2852 164.633 89.2852 164.172V158.723H94.0195V156.32H89.2852V153.215ZM97.2773 162.543V162.789C97.2773 163.719 97.4102 164.578 97.6758 165.367C97.9414 166.148 98.332 166.828 98.8477 167.406C99.3555 167.984 99.9805 168.438 100.723 168.766C101.473 169.086 102.324 169.246 103.277 169.246C104.223 169.246 105.066 169.086 105.809 168.766C106.551 168.438 107.176 167.984 107.684 167.406C108.191 166.828 108.578 166.148 108.844 165.367C109.109 164.578 109.242 163.719 109.242 162.789V162.543C109.242 161.621 109.109 160.77 108.844 159.988C108.578 159.199 108.191 158.516 107.684 157.938C107.168 157.359 106.539 156.906 105.797 156.578C105.055 156.25 104.207 156.086 103.254 156.086C102.301 156.086 101.453 156.25 100.711 156.578C99.9766 156.906 99.3555 157.359 98.8477 157.938C98.332 158.516 97.9414 159.199 97.6758 159.988C97.4102 160.77 97.2773 161.621 97.2773 162.543ZM100.535 162.789V162.543C100.535 162.027 100.586 161.539 100.688 161.078C100.789 160.617 100.949 160.211 101.168 159.859C101.387 159.508 101.668 159.23 102.012 159.027C102.355 158.824 102.77 158.723 103.254 158.723C103.746 158.723 104.164 158.824 104.508 159.027C104.852 159.23 105.133 159.508 105.352 159.859C105.562 160.211 105.719 160.617 105.82 161.078C105.922 161.539 105.973 162.027 105.973 162.543V162.789C105.973 163.32 105.922 163.82 105.82 164.289C105.719 164.75 105.562 165.152 105.352 165.496C105.133 165.848 104.852 166.125 104.508 166.328C104.164 166.531 103.754 166.633 103.277 166.633C102.785 166.633 102.363 166.531 102.012 166.328C101.668 166.125 101.387 165.848 101.168 165.496C100.949 165.152 100.789 164.75 100.688 164.289C100.586 163.82 100.535 163.32 100.535 162.789ZM114.164 156.32H111.363V169H114.328V159.508C114.367 159.406 114.41 159.312 114.457 159.227C114.504 159.141 114.559 159.066 114.621 159.004C114.707 158.918 114.805 158.852 114.914 158.805C115.023 158.758 115.148 158.734 115.289 158.734C115.414 158.734 115.531 158.754 115.641 158.793C115.75 158.824 115.848 158.883 115.934 158.969C116.012 159.055 116.074 159.176 116.121 159.332C116.168 159.488 116.191 159.688 116.191 159.93V169H119.062V159.648C119.062 159.555 119.062 159.48 119.062 159.426C119.062 159.371 119.062 159.336 119.062 159.32C119.102 159.234 119.148 159.16 119.203 159.098C119.258 159.027 119.32 158.965 119.391 158.91C119.477 158.855 119.566 158.812 119.66 158.781C119.762 158.75 119.875 158.734 120 158.734C120.117 158.734 120.23 158.754 120.34 158.793C120.457 158.824 120.559 158.883 120.645 158.969C120.73 159.062 120.797 159.188 120.844 159.344C120.898 159.5 120.926 159.699 120.926 159.941V169H123.891V159.953C123.891 159.25 123.82 158.656 123.68 158.172C123.547 157.68 123.359 157.277 123.117 156.965C122.867 156.66 122.574 156.438 122.238 156.297C121.91 156.156 121.555 156.086 121.172 156.086C120.867 156.086 120.586 156.125 120.328 156.203C120.07 156.281 119.84 156.391 119.637 156.531C119.473 156.641 119.32 156.773 119.18 156.93C119.047 157.078 118.926 157.246 118.816 157.434C118.746 157.238 118.66 157.066 118.559 156.918C118.465 156.762 118.352 156.629 118.219 156.52C118.047 156.371 117.844 156.262 117.609 156.191C117.375 156.121 117.109 156.086 116.812 156.086C116.203 156.086 115.684 156.246 115.254 156.566C114.832 156.879 114.5 157.309 114.258 157.855L114.164 156.32ZM134.473 169H137.777V168.801C137.613 168.48 137.488 168.098 137.402 167.652C137.316 167.207 137.273 166.645 137.273 165.965V160.527C137.273 159.793 137.137 159.148 136.863 158.594C136.59 158.031 136.211 157.566 135.727 157.199C135.242 156.832 134.668 156.555 134.004 156.367C133.348 156.18 132.637 156.086 131.871 156.086C131.02 156.086 130.262 156.195 129.598 156.414C128.941 156.625 128.387 156.914 127.934 157.281C127.473 157.648 127.121 158.074 126.879 158.559C126.645 159.043 126.527 159.555 126.527 160.094H129.785C129.785 159.867 129.816 159.66 129.879 159.473C129.949 159.285 130.055 159.125 130.195 158.992C130.352 158.844 130.555 158.73 130.805 158.652C131.055 158.566 131.352 158.523 131.695 158.523C132.086 158.523 132.426 158.574 132.715 158.676C133.012 158.77 133.258 158.906 133.453 159.086C133.641 159.258 133.781 159.465 133.875 159.707C133.969 159.941 134.016 160.207 134.016 160.504V161.254H132.199C131.262 161.254 130.43 161.34 129.703 161.512C128.984 161.676 128.379 161.918 127.887 162.238C127.34 162.59 126.93 163.039 126.656 163.586C126.383 164.125 126.246 164.746 126.246 165.449C126.246 165.996 126.355 166.504 126.574 166.973C126.793 167.434 127.098 167.832 127.488 168.168C127.879 168.504 128.344 168.766 128.883 168.953C129.43 169.141 130.027 169.234 130.676 169.234C131.074 169.234 131.445 169.195 131.789 169.117C132.133 169.047 132.449 168.945 132.738 168.812C133.02 168.688 133.277 168.539 133.512 168.367C133.746 168.195 133.953 168.012 134.133 167.816C134.172 168.043 134.219 168.258 134.273 168.461C134.328 168.664 134.395 168.844 134.473 169ZM131.367 166.715C131.062 166.715 130.793 166.68 130.559 166.609C130.332 166.531 130.141 166.43 129.984 166.305C129.828 166.172 129.707 166.012 129.621 165.824C129.543 165.629 129.504 165.418 129.504 165.191C129.504 164.902 129.559 164.637 129.668 164.395C129.777 164.145 129.945 163.93 130.172 163.75C130.398 163.578 130.691 163.445 131.051 163.352C131.41 163.25 131.844 163.199 132.352 163.199H134.016V165.379C133.922 165.543 133.793 165.707 133.629 165.871C133.465 166.027 133.27 166.168 133.043 166.293C132.816 166.418 132.562 166.52 132.281 166.598C132 166.676 131.695 166.715 131.367 166.715ZM146.941 153.215H143.684V156.32H140.789V158.723H143.684V164.488C143.684 165.324 143.793 166.043 144.012 166.645C144.23 167.238 144.543 167.727 144.949 168.109C145.348 168.5 145.828 168.789 146.391 168.977C146.961 169.156 147.594 169.246 148.289 169.246C148.648 169.246 149.012 169.227 149.379 169.188C149.754 169.156 150.113 169.109 150.457 169.047C150.801 168.984 151.125 168.906 151.43 168.812C151.734 168.711 152 168.594 152.227 168.461L151.91 166.223C151.762 166.262 151.582 166.301 151.371 166.34C151.168 166.379 150.949 166.414 150.715 166.445C150.473 166.484 150.219 166.516 149.953 166.539C149.695 166.562 149.441 166.574 149.191 166.574C148.848 166.574 148.535 166.535 148.254 166.457C147.98 166.379 147.746 166.246 147.551 166.059C147.355 165.879 147.203 165.637 147.094 165.332C146.992 165.02 146.941 164.633 146.941 164.172V158.723H151.676V156.32H146.941V153.215ZM156.246 156.32V158.98H159.855V166.352H156.246V169H166.582V166.352H163.148V156.32H156.246ZM159.621 153.074C159.621 153.324 159.664 153.559 159.75 153.777C159.844 153.988 159.973 154.168 160.137 154.316C160.301 154.473 160.496 154.594 160.723 154.68C160.957 154.766 161.215 154.809 161.496 154.809C162.074 154.809 162.531 154.648 162.867 154.328C163.211 154 163.383 153.582 163.383 153.074C163.383 152.566 163.211 152.152 162.867 151.832C162.531 151.504 162.074 151.34 161.496 151.34C161.215 151.34 160.957 151.383 160.723 151.469C160.496 151.555 160.301 151.672 160.137 151.82C159.973 151.977 159.844 152.164 159.75 152.383C159.664 152.594 159.621 152.824 159.621 153.074ZM169.348 162.543V162.789C169.348 163.719 169.48 164.578 169.746 165.367C170.012 166.148 170.402 166.828 170.918 167.406C171.426 167.984 172.051 168.438 172.793 168.766C173.543 169.086 174.395 169.246 175.348 169.246C176.293 169.246 177.137 169.086 177.879 168.766C178.621 168.438 179.246 167.984 179.754 167.406C180.262 166.828 180.648 166.148 180.914 165.367C181.18 164.578 181.312 163.719 181.312 162.789V162.543C181.312 161.621 181.18 160.77 180.914 159.988C180.648 159.199 180.262 158.516 179.754 157.938C179.238 157.359 178.609 156.906 177.867 156.578C177.125 156.25 176.277 156.086 175.324 156.086C174.371 156.086 173.523 156.25 172.781 156.578C172.047 156.906 171.426 157.359 170.918 157.938C170.402 158.516 170.012 159.199 169.746 159.988C169.48 160.77 169.348 161.621 169.348 162.543ZM172.605 162.789V162.543C172.605 162.027 172.656 161.539 172.758 161.078C172.859 160.617 173.02 160.211 173.238 159.859C173.457 159.508 173.738 159.23 174.082 159.027C174.426 158.824 174.84 158.723 175.324 158.723C175.816 158.723 176.234 158.824 176.578 159.027C176.922 159.23 177.203 159.508 177.422 159.859C177.633 160.211 177.789 160.617 177.891 161.078C177.992 161.539 178.043 162.027 178.043 162.543V162.789C178.043 163.32 177.992 163.82 177.891 164.289C177.789 164.75 177.633 165.152 177.422 165.496C177.203 165.848 176.922 166.125 176.578 166.328C176.234 166.531 175.824 166.633 175.348 166.633C174.855 166.633 174.434 166.531 174.082 166.328C173.738 166.125 173.457 165.848 173.238 165.496C173.02 165.152 172.859 164.75 172.758 164.289C172.656 163.82 172.605 163.32 172.605 162.789ZM184.207 169H187.477V159.988C187.586 159.816 187.707 159.66 187.84 159.52C187.973 159.379 188.121 159.258 188.285 159.156C188.488 159.016 188.719 158.91 188.977 158.84C189.242 158.77 189.531 158.734 189.844 158.734C190.219 158.734 190.555 158.773 190.852 158.852C191.148 158.922 191.402 159.051 191.613 159.238C191.824 159.426 191.984 159.684 192.094 160.012C192.211 160.332 192.27 160.742 192.27 161.242V169H195.527V161.195C195.527 160.273 195.418 159.492 195.199 158.852C194.988 158.203 194.691 157.672 194.309 157.258C193.918 156.852 193.457 156.555 192.926 156.367C192.395 156.18 191.809 156.086 191.168 156.086C190.668 156.086 190.195 156.156 189.75 156.297C189.305 156.438 188.895 156.641 188.52 156.906C188.301 157.062 188.094 157.238 187.898 157.434C187.703 157.629 187.523 157.844 187.359 158.078L187.16 156.32H184.207V169Z" fill="white"/>
<path d="M24 171.344H196.957V172.516H24V171.344Z" fill="white"/>
</g>
<defs>
<clipPath id="clip0_1370_12380">
<rect width="500" height="200" fill="white"/>
</clipPath>
</defs>
</svg>
