<svg width="500" height="200" viewBox="0 0 500 200" fill="none" xmlns="http://www.w3.org/2000/svg">
<g clip-path="url(#clip0_1358_8995)">
<rect width="500" height="200" fill="#F6FBFF"/>
<path opacity="0.85" d="M238.712 199.882C239.314 199.882 239.802 199.394 239.802 198.793C239.802 198.191 239.314 197.703 238.712 197.703C238.11 197.703 237.623 198.191 237.623 198.793C237.623 199.394 238.11 199.882 238.712 199.882Z" fill="#A9CCDF"/>
<path opacity="0.84" d="M228.906 194.976C229.508 194.976 229.996 194.488 229.996 193.886C229.996 193.285 229.508 192.797 228.906 192.797C228.305 192.797 227.817 193.285 227.817 193.886C227.817 194.488 228.305 194.976 228.906 194.976Z" fill="#A9CCDF"/>
<path opacity="0.83" d="M217.467 193.071C218.219 193.071 218.829 192.462 218.829 191.71C218.829 190.957 218.219 190.348 217.467 190.348C216.715 190.348 216.105 190.957 216.105 191.71C216.105 192.462 216.715 193.071 217.467 193.071Z" fill="#A9CCDF"/>
<path opacity="0.82" d="M258.867 201.786C259.619 201.786 260.229 201.176 260.229 200.424C260.229 199.672 259.619 199.062 258.867 199.062C258.115 199.062 257.505 199.672 257.505 200.424C257.505 201.176 258.115 201.786 258.867 201.786Z" fill="#A9CCDF"/>
<path opacity="0.82" d="M205.483 192.524C206.235 192.524 206.845 191.915 206.845 191.163C206.845 190.411 206.235 189.801 205.483 189.801C204.731 189.801 204.121 190.411 204.121 191.163C204.121 191.915 204.731 192.524 205.483 192.524Z" fill="#A9CCDF"/>
<path opacity="0.81" d="M250.152 193.071C250.904 193.071 251.514 192.462 251.514 191.71C251.514 190.957 250.904 190.348 250.152 190.348C249.4 190.348 248.79 190.957 248.79 191.71C248.79 192.462 249.4 193.071 250.152 193.071Z" fill="#A9CCDF"/>
<path opacity="0.8" d="M192.954 195.251C193.706 195.251 194.316 194.641 194.316 193.889C194.316 193.137 193.706 192.527 192.954 192.527C192.202 192.527 191.592 193.137 191.592 193.889C191.592 194.641 192.202 195.251 192.954 195.251Z" fill="#A9CCDF"/>
<path opacity="0.8" d="M238.712 185.989C239.464 185.989 240.074 185.38 240.074 184.627C240.074 183.875 239.464 183.266 238.712 183.266C237.96 183.266 237.35 183.875 237.35 184.627C237.35 185.38 237.96 185.989 238.712 185.989Z" fill="#A9CCDF"/>
<path opacity="0.79" d="M180.425 200.696C181.177 200.696 181.787 200.087 181.787 199.335C181.787 198.582 181.177 197.973 180.425 197.973C179.673 197.973 179.063 198.582 179.063 199.335C179.063 200.087 179.673 200.696 180.425 200.696Z" fill="#A9CCDF"/>
<path opacity="0.79" d="M226.183 181.63C226.935 181.63 227.544 181.02 227.544 180.268C227.544 179.516 226.935 178.906 226.183 178.906C225.431 178.906 224.821 179.516 224.821 180.268C224.821 181.02 225.431 181.63 226.183 181.63Z" fill="#A9CCDF"/>
<path opacity="0.79" d="M272.486 199.607C273.238 199.607 273.848 198.997 273.848 198.245C273.848 197.493 273.238 196.883 272.486 196.883C271.734 196.883 271.124 197.493 271.124 198.245C271.124 198.997 271.734 199.607 272.486 199.607Z" fill="#A9CCDF"/>
<path opacity="0.78" d="M212.02 180.268C212.923 180.268 213.654 179.537 213.654 178.634C213.654 177.732 212.923 177 212.02 177C211.117 177 210.386 177.732 210.386 178.634C210.386 179.537 211.117 180.268 212.02 180.268Z" fill="#A9CCDF"/>
<path opacity="0.78" d="M263.225 188.44C264.128 188.44 264.859 187.709 264.859 186.806C264.859 185.904 264.128 185.172 263.225 185.172C262.322 185.172 261.591 185.904 261.591 186.806C261.591 187.709 262.322 188.44 263.225 188.44Z" fill="#A9CCDF"/>
<path opacity="0.77" d="M196.767 181.905C197.67 181.905 198.401 181.173 198.401 180.271C198.401 179.368 197.67 178.637 196.767 178.637C195.864 178.637 195.133 179.368 195.133 180.271C195.133 181.173 195.864 181.905 196.767 181.905Z" fill="#A9CCDF"/>
<path opacity="0.77" d="M251.786 179.179C252.688 179.179 253.42 178.447 253.42 177.544C253.42 176.642 252.688 175.91 251.786 175.91C250.883 175.91 250.151 176.642 250.151 177.544C250.151 178.447 250.883 179.179 251.786 179.179Z" fill="#A9CCDF"/>
<path opacity="0.76" d="M182.059 186.261C182.962 186.261 183.693 185.529 183.693 184.626C183.693 183.724 182.962 182.992 182.059 182.992C181.156 182.992 180.425 183.724 180.425 184.626C180.425 185.529 181.156 186.261 182.059 186.261Z" fill="#A9CCDF"/>
<path opacity="0.76" d="M237.623 172.643C238.525 172.643 239.257 171.912 239.257 171.009C239.257 170.107 238.525 169.375 237.623 169.375C236.72 169.375 235.988 170.107 235.988 171.009C235.988 171.912 236.72 172.643 237.623 172.643Z" fill="#A9CCDF"/>
<path opacity="0.76" d="M287.739 200.425C288.641 200.425 289.373 199.693 289.373 198.79C289.373 197.888 288.641 197.156 287.739 197.156C286.836 197.156 286.104 197.888 286.104 198.79C286.104 199.693 286.836 200.425 287.739 200.425Z" fill="#A9CCDF"/>
<path opacity="0.75" d="M167.896 194.433C168.798 194.433 169.53 193.701 169.53 192.798C169.53 191.896 168.798 191.164 167.896 191.164C166.993 191.164 166.262 191.896 166.262 192.798C166.262 193.701 166.993 194.433 167.896 194.433Z" fill="#A9CCDF"/>
<path opacity="0.75" d="M221.825 168.284C222.728 168.284 223.459 167.552 223.459 166.65C223.459 165.747 222.728 165.016 221.825 165.016C220.923 165.016 220.191 165.747 220.191 166.65C220.191 167.552 220.923 168.284 221.825 168.284Z" fill="#A9CCDF"/>
<path opacity="0.75" d="M278.478 186.808C279.381 186.808 280.112 186.076 280.112 185.173C280.112 184.271 279.381 183.539 278.478 183.539C277.575 183.539 276.844 184.271 276.844 185.173C276.844 186.076 277.575 186.808 278.478 186.808Z" fill="#A9CCDF"/>
<path opacity="0.74" d="M204.938 168.012C205.991 168.012 206.845 167.159 206.845 166.106C206.845 165.053 205.991 164.199 204.938 164.199C203.885 164.199 203.032 165.053 203.032 166.106C203.032 167.159 203.885 168.012 204.938 168.012Z" fill="#A9CCDF"/>
<path opacity="0.74" d="M266.494 175.094C267.546 175.094 268.4 174.241 268.4 173.188C268.4 172.135 267.546 171.281 266.494 171.281C265.441 171.281 264.587 172.135 264.587 173.188C264.587 174.241 265.441 175.094 266.494 175.094Z" fill="#A9CCDF"/>
<path opacity="0.73" d="M187.507 171.282C188.56 171.282 189.413 170.428 189.413 169.375C189.413 168.322 188.56 167.469 187.507 167.469C186.454 167.469 185.6 168.322 185.6 169.375C185.6 170.428 186.454 171.282 187.507 171.282Z" fill="#A9CCDF"/>
<path opacity="0.73" d="M251.786 165.29C252.839 165.29 253.693 164.436 253.693 163.383C253.693 162.33 252.839 161.477 251.786 161.477C250.733 161.477 249.879 162.33 249.879 163.383C249.879 164.436 250.733 165.29 251.786 165.29Z" fill="#A9CCDF"/>
<path opacity="0.72" d="M170.619 178.364C171.672 178.364 172.526 177.51 172.526 176.457C172.526 175.404 171.672 174.551 170.619 174.551C169.566 174.551 168.713 175.404 168.713 176.457C168.713 177.51 169.566 178.364 170.619 178.364Z" fill="#A9CCDF"/>
<path opacity="0.71" d="M234.899 158.751C235.952 158.751 236.805 157.897 236.805 156.844C236.805 155.791 235.952 154.938 234.899 154.938C233.846 154.938 232.992 155.791 232.992 156.844C232.992 157.897 233.846 158.751 234.899 158.751Z" fill="#A9CCDF"/>
<path opacity="0.71" d="M295.366 188.712C296.419 188.712 297.272 187.858 297.272 186.805C297.272 185.752 296.419 184.898 295.366 184.898C294.313 184.898 293.459 185.752 293.459 186.805C293.459 187.858 294.313 188.712 295.366 188.712Z" fill="#A9CCDF"/>
<path opacity="0.71" d="M154.822 189.258C155.875 189.258 156.729 188.405 156.729 187.352C156.729 186.299 155.875 185.445 154.822 185.445C153.769 185.445 152.916 186.299 152.916 187.352C152.916 188.405 153.769 189.258 154.822 189.258Z" fill="#A9CCDF"/>
<path opacity="0.7" d="M215.833 155.485C216.886 155.485 217.739 154.631 217.739 153.578C217.739 152.525 216.886 151.672 215.833 151.672C214.78 151.672 213.926 152.525 213.926 153.578C213.926 154.631 214.78 155.485 215.833 155.485Z" fill="#A9CCDF"/>
<path opacity="0.7" d="M283.381 173.462C284.434 173.462 285.288 172.608 285.288 171.555C285.288 170.502 284.434 169.648 283.381 169.648C282.328 169.648 281.475 170.502 281.475 171.555C281.475 172.608 282.328 173.462 283.381 173.462Z" fill="#A9CCDF"/>
<path opacity="0.69" d="M141.203 203.694C142.407 203.694 143.382 202.718 143.382 201.515C143.382 200.311 142.407 199.336 141.203 199.336C140 199.336 139.024 200.311 139.024 201.515C139.024 202.718 140 203.694 141.203 203.694Z" fill="#A9CCDF"/>
<path opacity="0.69" d="M196.222 156.846C197.426 156.846 198.401 155.871 198.401 154.667C198.401 153.464 197.426 152.488 196.222 152.488C195.019 152.488 194.043 153.464 194.043 154.667C194.043 155.871 195.019 156.846 196.222 156.846Z" fill="#A9CCDF"/>
<path opacity="0.69" d="M268.673 160.659C269.877 160.659 270.852 159.683 270.852 158.48C270.852 157.276 269.877 156.301 268.673 156.301C267.47 156.301 266.494 157.276 266.494 158.48C266.494 159.683 267.47 160.659 268.673 160.659Z" fill="#A9CCDF"/>
<path opacity="0.68" d="M176.612 161.749C177.815 161.749 178.791 160.773 178.791 159.57C178.791 158.366 177.815 157.391 176.612 157.391C175.408 157.391 174.433 158.366 174.433 159.57C174.433 160.773 175.408 161.749 176.612 161.749Z" fill="#A9CCDF"/>
<path opacity="0.68" d="M250.697 150.854C251.9 150.854 252.875 149.878 252.875 148.675C252.875 147.472 251.9 146.496 250.697 146.496C249.493 146.496 248.518 147.472 248.518 148.675C248.518 149.878 249.493 150.854 250.697 150.854Z" fill="#A9CCDF"/>
<path opacity="0.68" d="M312.252 194.432C313.456 194.432 314.431 193.457 314.431 192.253C314.431 191.05 313.456 190.074 312.252 190.074C311.049 190.074 310.073 191.05 310.073 192.253C310.073 193.457 311.049 194.432 312.252 194.432Z" fill="#A9CCDF"/>
<path opacity="0.67" d="M157.546 171.553C158.749 171.553 159.725 170.578 159.725 169.374C159.725 168.171 158.749 167.195 157.546 167.195C156.342 167.195 155.367 168.171 155.367 169.374C155.367 170.578 156.342 171.553 157.546 171.553Z" fill="#A9CCDF"/>
<path opacity="0.67" d="M230.541 144.862C231.745 144.862 232.72 143.886 232.72 142.683C232.72 141.479 231.745 140.504 230.541 140.504C229.338 140.504 228.362 141.479 228.362 142.683C228.362 143.886 229.338 144.862 230.541 144.862Z" fill="#A9CCDF"/>
<path opacity="0.67" d="M301.902 175.913C303.105 175.913 304.081 174.937 304.081 173.734C304.081 172.53 303.105 171.555 301.902 171.555C300.698 171.555 299.723 172.53 299.723 173.734C299.723 174.937 300.698 175.913 301.902 175.913Z" fill="#A9CCDF"/>
<path opacity="0.66" d="M140.659 185.17C141.862 185.17 142.838 184.195 142.838 182.991C142.838 181.788 141.862 180.812 140.659 180.812C139.456 180.812 138.48 181.788 138.48 182.991C138.48 184.195 139.456 185.17 140.659 185.17Z" fill="#A9CCDF"/>
<path opacity="0.66" d="M208.751 143.229C209.955 143.229 210.93 142.253 210.93 141.05C210.93 139.847 209.955 138.871 208.751 138.871C207.548 138.871 206.572 139.847 206.572 141.05C206.572 142.253 207.548 143.229 208.751 143.229Z" fill="#A9CCDF"/>
<path opacity="0.66" d="M287.194 159.569C288.398 159.569 289.373 158.593 289.373 157.39C289.373 156.186 288.398 155.211 287.194 155.211C285.991 155.211 285.015 156.186 285.015 157.39C285.015 158.593 285.991 159.569 287.194 159.569Z" fill="#A9CCDF"/>
<path opacity="0.65" d="M126.496 202.332C127.85 202.332 128.947 201.235 128.947 199.881C128.947 198.527 127.85 197.43 126.496 197.43C125.142 197.43 124.044 198.527 124.044 199.881C124.044 201.235 125.142 202.332 126.496 202.332Z" fill="#A9CCDF"/>
<path opacity="0.65" d="M186.417 146.223C187.771 146.223 188.868 145.125 188.868 143.772C188.868 142.418 187.771 141.32 186.417 141.32C185.063 141.32 183.966 142.418 183.966 143.772C183.966 145.125 185.063 146.223 186.417 146.223Z" fill="#A9CCDF"/>
<path opacity="0.65" d="M269.217 146.223C270.571 146.223 271.669 145.125 271.669 143.772C271.669 142.418 270.571 141.32 269.217 141.32C267.864 141.32 266.766 142.418 266.766 143.772C266.766 145.125 267.864 146.223 269.217 146.223Z" fill="#A9CCDF"/>
<path opacity="0.65" d="M329.139 203.965C330.493 203.965 331.59 202.868 331.59 201.514C331.59 200.16 330.493 199.062 329.139 199.062C327.785 199.062 326.688 200.16 326.688 201.514C326.688 202.868 327.785 203.965 329.139 203.965Z" fill="#A9CCDF"/>
<path opacity="0.64" d="M164.627 153.848C165.981 153.848 167.078 152.75 167.078 151.397C167.078 150.043 165.981 148.945 164.627 148.945C163.273 148.945 162.176 150.043 162.176 151.397C162.176 152.75 163.273 153.848 164.627 153.848Z" fill="#A9CCDF"/>
<path opacity="0.64" d="M247.973 136.961C249.327 136.961 250.424 135.864 250.424 134.51C250.424 133.156 249.327 132.059 247.973 132.059C246.619 132.059 245.521 133.156 245.521 134.51C245.521 135.864 246.619 136.961 247.973 136.961Z" fill="#A9CCDF"/>
<path opacity="0.64" d="M320.423 182.176C321.777 182.176 322.874 181.079 322.874 179.725C322.874 178.371 321.777 177.273 320.423 177.273C319.069 177.273 317.972 178.371 317.972 179.725C317.972 181.079 319.069 182.176 320.423 182.176Z" fill="#A9CCDF"/>
<path opacity="0.63" d="M143.927 165.832C145.281 165.832 146.379 164.735 146.379 163.381C146.379 162.027 145.281 160.93 143.927 160.93C142.574 160.93 141.476 162.027 141.476 163.381C141.476 164.735 142.574 165.832 143.927 165.832Z" fill="#A9CCDF"/>
<path opacity="0.63" d="M224.549 131.516C225.903 131.516 227 130.418 227 129.065C227 127.711 225.903 126.613 224.549 126.613C223.195 126.613 222.098 127.711 222.098 129.065C222.098 130.418 223.195 131.516 224.549 131.516Z" fill="#A9CCDF"/>
<path opacity="0.63" d="M306.804 162.567C308.158 162.567 309.256 161.469 309.256 160.115C309.256 158.762 308.158 157.664 306.804 157.664C305.451 157.664 304.353 158.762 304.353 160.115C304.353 161.469 305.451 162.567 306.804 162.567Z" fill="#A9CCDF"/>
<path opacity="0.62" d="M125.951 182.176C127.305 182.176 128.402 181.079 128.402 179.725C128.402 178.371 127.305 177.273 125.951 177.273C124.597 177.273 123.5 178.371 123.5 179.725C123.5 181.079 124.597 182.176 125.951 182.176Z" fill="#A9CCDF"/>
<path opacity="0.62" d="M200.035 130.969C201.389 130.969 202.487 129.872 202.487 128.518C202.487 127.164 201.389 126.066 200.035 126.066C198.681 126.066 197.584 127.164 197.584 128.518C197.584 129.872 198.681 130.969 200.035 130.969Z" fill="#A9CCDF"/>
<path opacity="0.61" d="M289.373 145.133C290.727 145.133 291.825 144.036 291.825 142.682C291.825 141.328 290.727 140.23 289.373 140.23C288.019 140.23 286.922 141.328 286.922 142.682C286.922 144.036 288.019 145.133 289.373 145.133Z" fill="#A9CCDF"/>
<path opacity="0.61" d="M111.243 202.875C112.597 202.875 113.694 201.778 113.694 200.424C113.694 199.07 112.597 197.973 111.243 197.973C109.889 197.973 108.792 199.07 108.792 200.424C108.792 201.778 109.889 202.875 111.243 202.875Z" fill="#A9CCDF"/>
<path opacity="0.61" d="M175.522 135.871C176.876 135.871 177.973 134.774 177.973 133.42C177.973 132.066 176.876 130.969 175.522 130.969C174.168 130.969 173.071 132.066 173.071 133.42C173.071 134.774 174.168 135.871 175.522 135.871Z" fill="#A9CCDF"/>
<path opacity="0.6" d="M268.128 131.787C269.632 131.787 270.852 130.568 270.852 129.064C270.852 127.559 269.632 126.34 268.128 126.34C266.624 126.34 265.404 127.559 265.404 129.064C265.404 130.568 266.624 131.787 268.128 131.787Z" fill="#A9CCDF"/>
<path opacity="0.6" d="M338.399 192.799C339.904 192.799 341.123 191.58 341.123 190.075C341.123 188.571 339.904 187.352 338.399 187.352C336.895 187.352 335.676 188.571 335.676 190.075C335.676 191.58 336.895 192.799 338.399 192.799Z" fill="#A9CCDF"/>
<path opacity="0.59" d="M151.554 145.951C153.058 145.951 154.277 144.732 154.277 143.228C154.277 141.723 153.058 140.504 151.554 140.504C150.05 140.504 148.83 141.723 148.83 143.228C148.83 144.732 150.05 145.951 151.554 145.951Z" fill="#A9CCDF"/>
<path opacity="0.59" d="M243.614 122.526C245.119 122.526 246.338 121.306 246.338 119.802C246.338 118.298 245.119 117.078 243.614 117.078C242.11 117.078 240.891 118.298 240.891 119.802C240.891 121.306 242.11 122.526 243.614 122.526Z" fill="#A9CCDF"/>
<path opacity="0.59" d="M326.96 168.83C328.464 168.83 329.684 167.611 329.684 166.107C329.684 164.602 328.464 163.383 326.96 163.383C325.456 163.383 324.236 164.602 324.236 166.107C324.236 167.611 325.456 168.83 326.96 168.83Z" fill="#A9CCDF"/>
<path opacity="0.58" d="M129.764 161.205C131.268 161.205 132.488 159.986 132.488 158.482C132.488 156.977 131.268 155.758 129.764 155.758C128.26 155.758 127.041 156.977 127.041 158.482C127.041 159.986 128.26 161.205 129.764 161.205Z" fill="#A9CCDF"/>
<path opacity="0.58" d="M217.467 118.17C218.972 118.17 220.191 116.951 220.191 115.446C220.191 113.942 218.972 112.723 217.467 112.723C215.963 112.723 214.744 113.942 214.744 115.446C214.744 116.951 215.963 118.17 217.467 118.17Z" fill="#A9CCDF"/>
<path opacity="0.58" d="M311.162 148.131C312.666 148.131 313.886 146.912 313.886 145.407C313.886 143.903 312.666 142.684 311.162 142.684C309.658 142.684 308.438 143.903 308.438 145.407C308.438 146.912 309.658 148.131 311.162 148.131Z" fill="#A9CCDF"/>
<path opacity="0.57" d="M110.698 180.815C112.203 180.815 113.422 179.595 113.422 178.091C113.422 176.587 112.203 175.367 110.698 175.367C109.194 175.367 107.975 176.587 107.975 178.091C107.975 179.595 109.194 180.815 110.698 180.815Z" fill="#A9CCDF"/>
<path opacity="0.57" d="M190.23 119.803C191.734 119.803 192.954 118.583 192.954 117.079C192.954 115.575 191.734 114.355 190.23 114.355C188.726 114.355 187.506 115.575 187.506 117.079C187.506 118.583 188.726 119.803 190.23 119.803Z" fill="#A9CCDF"/>
<path opacity="0.57" d="M289.918 130.154C291.422 130.154 292.641 128.935 292.641 127.431C292.641 125.926 291.422 124.707 289.918 124.707C288.413 124.707 287.194 125.926 287.194 127.431C287.194 128.935 288.413 130.154 289.918 130.154Z" fill="#A9CCDF"/>
<path opacity="0.56" d="M96.5347 204.783C98.039 204.783 99.2584 203.564 99.2584 202.06C99.2584 200.555 98.039 199.336 96.5347 199.336C95.0305 199.336 93.811 200.555 93.811 202.06C93.811 203.564 95.0305 204.783 96.5347 204.783Z" fill="#A9CCDF"/>
<path opacity="0.56" d="M162.993 126.885C164.497 126.885 165.717 125.665 165.717 124.161C165.717 122.657 164.497 121.438 162.993 121.438C161.489 121.438 160.27 122.657 160.27 124.161C160.27 125.665 161.489 126.885 162.993 126.885Z" fill="#A9CCDF"/>
<path opacity="0.56" d="M265.404 116.533C266.909 116.533 268.128 115.314 268.128 113.81C268.128 112.305 266.909 111.086 265.404 111.086C263.9 111.086 262.681 112.305 262.681 113.81C262.681 115.314 263.9 116.533 265.404 116.533Z" fill="#A9CCDF"/>
<path opacity="0.56" d="M347.115 179.996C348.77 179.996 350.111 178.655 350.111 177C350.111 175.345 348.77 174.004 347.115 174.004C345.461 174.004 344.119 175.345 344.119 177C344.119 178.655 345.461 179.996 347.115 179.996Z" fill="#A9CCDF"/>
<path opacity="0.55" d="M137.391 140.23C139.045 140.23 140.387 138.889 140.387 137.234C140.387 135.58 139.045 134.238 137.391 134.238C135.736 134.238 134.395 135.58 134.395 137.234C134.395 138.889 135.736 140.23 137.391 140.23Z" fill="#A9CCDF"/>
<path opacity="0.55" d="M238.167 108.637C239.822 108.637 241.164 107.295 241.164 105.641C241.164 103.986 239.822 102.645 238.167 102.645C236.513 102.645 235.171 103.986 235.171 105.641C235.171 107.295 236.513 108.637 238.167 108.637Z" fill="#A9CCDF"/>
<path opacity="0.55" d="M332.952 154.937C334.607 154.937 335.948 153.596 335.948 151.941C335.948 150.287 334.607 148.945 332.952 148.945C331.297 148.945 329.956 150.287 329.956 151.941C329.956 153.596 331.297 154.937 332.952 154.937Z" fill="#A9CCDF"/>
<path opacity="0.54" d="M114.511 158.207C116.166 158.207 117.507 156.866 117.507 155.211C117.507 153.556 116.166 152.215 114.511 152.215C112.857 152.215 111.515 153.556 111.515 155.211C111.515 156.866 112.857 158.207 114.511 158.207Z" fill="#A9CCDF"/>
<path opacity="0.54" d="M208.751 105.914C210.406 105.914 211.748 104.573 211.748 102.918C211.748 101.263 210.406 99.9219 208.751 99.9219C207.097 99.9219 205.755 101.263 205.755 102.918C205.755 104.573 207.097 105.914 208.751 105.914Z" fill="#A9CCDF"/>
<path opacity="0.54" d="M313.341 133.148C314.996 133.148 316.337 131.807 316.337 130.152C316.337 128.498 314.996 127.156 313.341 127.156C311.687 127.156 310.345 128.498 310.345 130.152C310.345 131.807 311.687 133.148 313.341 133.148Z" fill="#A9CCDF"/>
<path opacity="0.53" d="M95.4453 181.086C97.1 181.086 98.4414 179.745 98.4414 178.09C98.4414 176.435 97.1 175.094 95.4453 175.094C93.7906 175.094 92.4492 176.435 92.4492 178.09C92.4492 179.745 93.7906 181.086 95.4453 181.086Z" fill="#A9CCDF"/>
<path opacity="0.53" d="M178.791 109.18C180.445 109.18 181.787 107.838 181.787 106.184C181.787 104.529 180.445 103.188 178.791 103.188C177.136 103.188 175.794 104.529 175.794 106.184C175.794 107.838 177.136 109.18 178.791 109.18Z" fill="#A9CCDF"/>
<path opacity="0.53" d="M289.373 114.629C291.028 114.629 292.369 113.287 292.369 111.633C292.369 109.978 291.028 108.637 289.373 108.637C287.718 108.637 286.377 109.978 286.377 111.633C286.377 113.287 287.718 114.629 289.373 114.629Z" fill="#A9CCDF"/>
<path opacity="0.52" d="M366.181 195.25C367.836 195.25 369.177 193.909 369.177 192.254C369.177 190.599 367.836 189.258 366.181 189.258C364.526 189.258 363.185 190.599 363.185 192.254C363.185 193.909 364.526 195.25 366.181 195.25Z" fill="#A9CCDF"/>
<path opacity="0.52" d="M149.919 118.988C151.574 118.988 152.915 117.647 152.915 115.992C152.915 114.337 151.574 112.996 149.919 112.996C148.265 112.996 146.923 114.337 146.923 115.992C146.923 117.647 148.265 118.988 149.919 118.988Z" fill="#A9CCDF"/>
<path opacity="0.52" d="M261.591 101.555C263.246 101.555 264.587 100.213 264.587 98.5586C264.587 96.9039 263.246 95.5625 261.591 95.5625C259.937 95.5625 258.595 96.9039 258.595 98.5586C258.595 100.213 259.937 101.555 261.591 101.555Z" fill="#A9CCDF"/>
<path opacity="0.51" d="M354.742 166.379C356.396 166.379 357.738 165.037 357.738 163.383C357.738 161.728 356.396 160.387 354.742 160.387C353.087 160.387 351.746 161.728 351.746 163.383C351.746 165.037 353.087 166.379 354.742 166.379Z" fill="#A9CCDF"/>
<path opacity="0.51" d="M122.683 135.056C124.488 135.056 125.951 133.593 125.951 131.788C125.951 129.983 124.488 128.52 122.683 128.52C120.877 128.52 119.414 129.983 119.414 131.788C119.414 133.593 120.877 135.056 122.683 135.056Z" fill="#A9CCDF"/>
<path opacity="0.5" d="M231.085 94.7439C232.89 94.7439 234.354 93.2806 234.354 91.4755C234.354 89.6704 232.89 88.207 231.085 88.207C229.28 88.207 227.817 89.6704 227.817 91.4755C227.817 93.2806 229.28 94.7439 231.085 94.7439Z" fill="#A9CCDF"/>
<path opacity="0.5" d="M337.31 140.506C339.115 140.506 340.578 139.042 340.578 137.237C340.578 135.432 339.115 133.969 337.31 133.969C335.505 133.969 334.042 135.432 334.042 137.237C334.042 139.042 335.505 140.506 337.31 140.506Z" fill="#A9CCDF"/>
<path opacity="0.5" d="M98.7142 156.303C100.519 156.303 101.983 154.839 101.983 153.034C101.983 151.229 100.519 149.766 98.7142 149.766C96.9091 149.766 95.4458 151.229 95.4458 153.034C95.4458 154.839 96.9091 156.303 98.7142 156.303Z" fill="#A9CCDF"/>
<path opacity="0.49" d="M198.947 93.6541C200.752 93.6541 202.215 92.1907 202.215 90.3856C202.215 88.5805 200.752 87.1172 198.947 87.1172C197.142 87.1172 195.678 88.5805 195.678 90.3856C195.678 92.1907 197.142 93.6541 198.947 93.6541Z" fill="#A9CCDF"/>
<path opacity="0.49" d="M314.975 117.623C316.781 117.623 318.244 116.159 318.244 114.354C318.244 112.549 316.781 111.086 314.975 111.086C313.17 111.086 311.707 112.549 311.707 114.354C311.707 116.159 313.17 117.623 314.975 117.623Z" fill="#A9CCDF"/>
<path opacity="0.48" d="M79.6478 182.447C81.4529 182.447 82.9163 180.984 82.9163 179.179C82.9163 177.373 81.4529 175.91 79.6478 175.91C77.8427 175.91 76.3794 177.373 76.3794 179.179C76.3794 180.984 77.8427 182.447 79.6478 182.447Z" fill="#A9CCDF"/>
<path opacity="0.48" d="M166.806 99.6463C168.611 99.6463 170.074 98.1829 170.074 96.3778C170.074 94.5727 168.611 93.1094 166.806 93.1094C165.001 93.1094 163.538 94.5727 163.538 96.3778C163.538 98.1829 165.001 99.6463 166.806 99.6463Z" fill="#A9CCDF"/>
<path opacity="0.48" d="M287.194 99.1033C288.999 99.1033 290.463 97.64 290.463 95.8348C290.463 94.0297 288.999 92.5664 287.194 92.5664C285.389 92.5664 283.926 94.0297 283.926 95.8348C283.926 97.64 285.389 99.1033 287.194 99.1033Z" fill="#A9CCDF"/>
<path opacity="0.48" d="M375.442 182.447C377.247 182.447 378.71 180.984 378.71 179.179C378.71 177.373 377.247 175.91 375.442 175.91C373.637 175.91 372.173 177.373 372.173 179.179C372.173 180.984 373.637 182.447 375.442 182.447Z" fill="#A9CCDF"/>
<path opacity="0.47" d="M135.756 112.178C137.561 112.178 139.025 110.714 139.025 108.909C139.025 107.104 137.561 105.641 135.756 105.641C133.951 105.641 132.488 107.104 132.488 108.909C132.488 110.714 133.951 112.178 135.756 112.178Z" fill="#A9CCDF"/>
<path opacity="0.47" d="M256.144 87.1189C257.949 87.1189 259.412 85.6556 259.412 83.8505C259.412 82.0454 257.949 80.582 256.144 80.582C254.339 80.582 252.875 82.0454 252.875 83.8505C252.875 85.6556 254.339 87.1189 256.144 87.1189Z" fill="#A9CCDF"/>
<path opacity="0.47" d="M361.278 151.943C363.083 151.943 364.547 150.48 364.547 148.675C364.547 146.87 363.083 145.406 361.278 145.406C359.473 145.406 358.01 146.87 358.01 148.675C358.01 150.48 359.473 151.943 361.278 151.943Z" fill="#A9CCDF"/>
<path opacity="0.46" d="M106.885 130.972C108.84 130.972 110.425 129.387 110.425 127.431C110.425 125.476 108.84 123.891 106.885 123.891C104.929 123.891 103.344 125.476 103.344 127.431C103.344 129.387 104.929 130.972 106.885 130.972Z" fill="#A9CCDF"/>
<path opacity="0.46" d="M222.37 81.398C224.325 81.398 225.911 79.8127 225.911 77.8572C225.911 75.9017 224.325 74.3164 222.37 74.3164C220.414 74.3164 218.829 75.9017 218.829 77.8572C218.829 79.8127 220.414 81.398 222.37 81.398Z" fill="#A9CCDF"/>
<path opacity="0.46" d="M340.578 124.433C342.534 124.433 344.119 122.848 344.119 120.892C344.119 118.937 342.534 117.352 340.578 117.352C338.623 117.352 337.038 118.937 337.038 120.892C337.038 122.848 338.623 124.433 340.578 124.433Z" fill="#A9CCDF"/>
<path opacity="0.45" d="M82.9163 156.027C84.8718 156.027 86.4571 154.442 86.4571 152.486C86.4571 150.531 84.8718 148.945 82.9163 148.945C80.9608 148.945 79.3755 150.531 79.3755 152.486C79.3755 154.442 80.9608 156.027 82.9163 156.027Z" fill="#A9CCDF"/>
<path opacity="0.45" d="M187.507 82.4879C189.462 82.4879 191.047 80.9026 191.047 78.9471C191.047 76.9915 189.462 75.4062 187.507 75.4062C185.551 75.4062 183.966 76.9915 183.966 78.9471C183.966 80.9026 185.551 82.4879 187.507 82.4879Z" fill="#A9CCDF"/>
<path opacity="0.45" d="M314.431 101.554C316.386 101.554 317.972 99.969 317.972 98.0135C317.972 96.0579 316.386 94.4727 314.431 94.4727C312.475 94.4727 310.89 96.0579 310.89 98.0135C310.89 99.969 312.475 101.554 314.431 101.554Z" fill="#A9CCDF"/>
<path opacity="0.45" d="M393.963 202.875C395.918 202.875 397.503 201.289 397.503 199.334C397.503 197.378 395.918 195.793 393.963 195.793C392.007 195.793 390.422 197.378 390.422 199.334C390.422 201.289 392.007 202.875 393.963 202.875Z" fill="#A9CCDF"/>
<path opacity="0.44" d="M63.3055 185.988C65.261 185.988 66.8463 184.403 66.8463 182.447C66.8463 180.492 65.261 178.906 63.3055 178.906C61.3499 178.906 59.7646 180.492 59.7646 182.447C59.7646 184.403 61.3499 185.988 63.3055 185.988Z" fill="#A9CCDF"/>
<path opacity="0.44" d="M153.188 90.6597C155.143 90.6597 156.729 89.0745 156.729 87.1189C156.729 85.1634 155.143 83.5781 153.188 83.5781C151.232 83.5781 149.647 85.1634 149.647 87.1189C149.647 89.0745 151.232 90.6597 153.188 90.6597Z" fill="#A9CCDF"/>
<path opacity="0.44" d="M283.926 83.5777C285.881 83.5777 287.466 81.9924 287.466 80.0369C287.466 78.0814 285.881 76.4961 283.926 76.4961C281.97 76.4961 280.385 78.0814 280.385 80.0369C280.385 81.9924 281.97 83.5777 283.926 83.5777Z" fill="#A9CCDF"/>
<path opacity="0.44" d="M383.613 168.558C385.568 168.558 387.153 166.973 387.153 165.017C387.153 163.062 385.568 161.477 383.613 161.477C381.657 161.477 380.072 163.062 380.072 165.017C380.072 166.973 381.657 168.558 383.613 168.558Z" fill="#A9CCDF"/>
<path opacity="0.43" d="M120.503 106.457C122.459 106.457 124.044 104.871 124.044 102.916C124.044 100.96 122.459 99.375 120.503 99.375C118.548 99.375 116.962 100.96 116.962 102.916C116.962 104.871 118.548 106.457 120.503 106.457Z" fill="#A9CCDF"/>
<path opacity="0.43" d="M249.062 72.1402C251.018 72.1402 252.603 70.5549 252.603 68.5994C252.603 66.6439 251.018 65.0586 249.062 65.0586C247.107 65.0586 245.521 66.6439 245.521 68.5994C245.521 70.5549 247.107 72.1402 249.062 72.1402Z" fill="#A9CCDF"/>
<path opacity="0.43" d="M366.181 136.418C368.137 136.418 369.722 134.832 369.722 132.877C369.722 130.921 368.137 129.336 366.181 129.336C364.226 129.336 362.641 130.921 362.641 132.877C362.641 134.832 364.226 136.418 366.181 136.418Z" fill="#A9CCDF"/>
<path opacity="0.42" d="M91.0871 129.064C93.1931 129.064 94.9003 127.357 94.9003 125.251C94.9003 123.145 93.1931 121.438 91.0871 121.438C88.9811 121.438 87.2739 123.145 87.2739 125.251C87.2739 127.357 88.9811 129.064 91.0871 129.064Z" fill="#A9CCDF"/>
<path opacity="0.42" d="M212.565 68.599C214.671 68.599 216.378 66.8918 216.378 64.7858C216.378 62.6799 214.671 60.9727 212.565 60.9727C210.459 60.9727 208.751 62.6799 208.751 64.7858C208.751 66.8918 210.459 68.599 212.565 68.599Z" fill="#A9CCDF"/>
<path opacity="0.42" d="M342.213 108.365C344.319 108.365 346.026 106.657 346.026 104.551C346.026 102.445 344.319 100.738 342.213 100.738C340.107 100.738 338.399 102.445 338.399 104.551C338.399 106.657 340.107 108.365 342.213 108.365Z" fill="#A9CCDF"/>
<path opacity="0.41" d="M66.03 156.845C68.1359 156.845 69.8432 155.138 69.8432 153.032C69.8432 150.926 68.1359 149.219 66.03 149.219C63.924 149.219 62.2168 150.926 62.2168 153.032C62.2168 155.138 63.924 156.845 66.03 156.845Z" fill="#A9CCDF"/>
<path opacity="0.41" d="M174.978 71.8685C177.084 71.8685 178.791 70.1613 178.791 68.0554C178.791 65.9494 177.084 64.2422 174.978 64.2422C172.872 64.2422 171.165 65.9494 171.165 68.0554C171.165 70.1613 172.872 71.8685 174.978 71.8685Z" fill="#A9CCDF"/>
<path opacity="0.4" d="M312.797 84.9389C314.903 84.9389 316.61 83.2316 316.61 81.1257C316.61 79.0197 314.903 77.3125 312.797 77.3125C310.691 77.3125 308.983 79.0197 308.983 81.1257C308.983 83.2316 310.691 84.9389 312.797 84.9389Z" fill="#A9CCDF"/>
<path opacity="0.4" d="M403.768 190.076C405.874 190.076 407.581 188.368 407.581 186.262C407.581 184.156 405.874 182.449 403.768 182.449C401.662 182.449 399.955 184.156 399.955 186.262C399.955 188.368 401.662 190.076 403.768 190.076Z" fill="#A9CCDF"/>
<path opacity="0.4" d="M47.5085 190.076C49.6144 190.076 51.3217 188.368 51.3217 186.262C51.3217 184.156 49.6144 182.449 47.5085 182.449C45.4025 182.449 43.6953 184.156 43.6953 186.262C43.6953 188.368 45.4025 190.076 47.5085 190.076Z" fill="#A9CCDF"/>
<path opacity="0.4" d="M138.48 83.306C140.586 83.306 142.293 81.5988 142.293 79.4929C142.293 77.3869 140.586 75.6797 138.48 75.6797C136.374 75.6797 134.667 77.3869 134.667 79.4929C134.667 81.5988 136.374 83.306 138.48 83.306Z" fill="#A9CCDF"/>
<path opacity="0.39" d="M278.478 68.0521C280.584 68.0521 282.291 66.3449 282.291 64.239C282.291 62.133 280.584 60.4258 278.478 60.4258C276.372 60.4258 274.665 62.133 274.665 64.239C274.665 66.3449 276.372 68.0521 278.478 68.0521Z" fill="#A9CCDF"/>
<path opacity="0.39" d="M390.695 153.576C392.8 153.576 394.508 151.868 394.508 149.762C394.508 147.656 392.8 145.949 390.695 145.949C388.589 145.949 386.881 147.656 386.881 149.762C386.881 151.868 388.589 153.576 390.695 153.576Z" fill="#A9CCDF"/>
<path opacity="0.38" d="M104.162 101.826C106.268 101.826 107.975 100.118 107.975 98.0124C107.975 95.9064 106.268 94.1992 104.162 94.1992C102.056 94.1992 100.349 95.9064 100.349 98.0124C100.349 100.118 102.056 101.826 104.162 101.826Z" fill="#A9CCDF"/>
<path opacity="0.38" d="M240.891 58.2474C242.997 58.2474 244.704 56.5402 244.704 54.4343C244.704 52.3283 242.997 50.6211 240.891 50.6211C238.785 50.6211 237.078 52.3283 237.078 54.4343C237.078 56.5402 238.785 58.2474 240.891 58.2474Z" fill="#A9CCDF"/>
<path opacity="0.38" d="M369.994 120.349C372.1 120.349 373.808 118.642 373.808 116.536C373.808 114.43 372.1 112.723 369.994 112.723C367.888 112.723 366.181 114.43 366.181 116.536C366.181 118.642 367.888 120.349 369.994 120.349Z" fill="#A9CCDF"/>
<path opacity="0.37" d="M74.2008 127.702C76.4572 127.702 78.2863 125.873 78.2863 123.617C78.2863 121.36 76.4572 119.531 74.2008 119.531C71.9444 119.531 70.1152 121.36 70.1152 123.617C70.1152 125.873 71.9444 127.702 74.2008 127.702Z" fill="#A9CCDF"/>
<path opacity="0.37" d="M201.125 56.343C203.381 56.343 205.211 54.5138 205.211 52.2574C205.211 50.001 203.381 48.1719 201.125 48.1719C198.869 48.1719 197.04 50.001 197.04 52.2574C197.04 54.5138 198.869 56.343 201.125 56.343Z" fill="#A9CCDF"/>
<path opacity="0.37" d="M342.757 91.7492C345.014 91.7492 346.843 89.9201 346.843 87.6637C346.843 85.4073 345.014 83.5781 342.757 83.5781C340.501 83.5781 338.672 85.4073 338.672 87.6637C338.672 89.9201 340.501 91.7492 342.757 91.7492Z" fill="#A9CCDF"/>
<path opacity="0.36" d="M49.1422 159.843C51.3986 159.843 53.2277 158.014 53.2277 155.757C53.2277 153.501 51.3986 151.672 49.1422 151.672C46.8858 151.672 45.0566 153.501 45.0566 155.757C45.0566 158.014 46.8858 159.843 49.1422 159.843Z" fill="#A9CCDF"/>
<path opacity="0.36" d="M161.359 62.3352C163.615 62.3352 165.445 60.506 165.445 58.2496C165.445 55.9932 163.615 54.1641 161.359 54.1641C159.103 54.1641 157.273 55.9932 157.273 58.2496C157.273 60.506 159.103 62.3352 161.359 62.3352Z" fill="#A9CCDF"/>
<path opacity="0.36" d="M309.528 68.8703C311.785 68.8703 313.614 67.0412 313.614 64.7848C313.614 62.5284 311.785 60.6992 309.528 60.6992C307.272 60.6992 305.443 62.5284 305.443 64.7848C305.443 67.0412 307.272 68.8703 309.528 68.8703Z" fill="#A9CCDF"/>
<path opacity="0.36" d="M413.029 175.64C415.285 175.64 417.114 173.811 417.114 171.554C417.114 169.298 415.285 167.469 413.029 167.469C410.773 167.469 408.943 169.298 408.943 171.554C408.943 173.811 410.773 175.64 413.029 175.64Z" fill="#A9CCDF"/>
<path opacity="0.35" d="M31.1661 196.339C33.4225 196.339 35.2517 194.51 35.2517 192.254C35.2517 189.997 33.4225 188.168 31.1661 188.168C28.9097 188.168 27.0806 189.997 27.0806 192.254C27.0806 194.51 28.9097 196.339 31.1661 196.339Z" fill="#A9CCDF"/>
<path opacity="0.35" d="M122.682 76.4953C124.939 76.4953 126.768 74.6662 126.768 72.4098C126.768 70.1534 124.939 68.3242 122.682 68.3242C120.426 68.3242 118.597 70.1534 118.597 72.4098C118.597 74.6662 120.426 76.4953 122.682 76.4953Z" fill="#A9CCDF"/>
<path opacity="0.35" d="M271.942 52.5266C274.198 52.5266 276.027 50.6974 276.027 48.441C276.027 46.1846 274.198 44.3555 271.942 44.3555C269.685 44.3555 267.856 46.1846 267.856 48.441C267.856 50.6974 269.685 52.5266 271.942 52.5266Z" fill="#A9CCDF"/>
<path opacity="0.35" d="M396.687 138.054C398.943 138.054 400.772 136.225 400.772 133.968C400.772 131.712 398.943 129.883 396.687 129.883C394.43 129.883 392.601 131.712 392.601 133.968C392.601 136.225 394.43 138.054 396.687 138.054Z" fill="#A9CCDF"/>
<path opacity="0.34" d="M87.2745 98.8313C89.5309 98.8313 91.3601 97.0021 91.3601 94.7457C91.3601 92.4893 89.5309 90.6602 87.2745 90.6602C85.0181 90.6602 83.189 92.4893 83.189 94.7457C83.189 97.0021 85.0181 98.8313 87.2745 98.8313Z" fill="#A9CCDF"/>
<path opacity="0.34" d="M230.541 44.3586C232.797 44.3586 234.627 42.5294 234.627 40.273C234.627 38.0167 232.797 36.1875 230.541 36.1875C228.285 36.1875 226.456 38.0167 226.456 40.273C226.456 42.5294 228.285 44.3586 230.541 44.3586Z" fill="#A9CCDF"/>
<path opacity="0.34" d="M372.718 103.734C374.975 103.734 376.804 101.904 376.804 99.648C376.804 97.3917 374.975 95.5625 372.718 95.5625C370.462 95.5625 368.633 97.3917 368.633 99.648C368.633 101.904 370.462 103.734 372.718 103.734Z" fill="#A9CCDF"/>
<path opacity="0.33" d="M56.769 128.521C59.1759 128.521 61.127 126.569 61.127 124.163C61.127 121.756 59.1759 119.805 56.769 119.805C54.3622 119.805 52.4111 121.756 52.4111 124.163C52.4111 126.569 54.3622 128.521 56.769 128.521Z" fill="#A9CCDF"/>
<path opacity="0.33" d="M188.051 44.6299C190.458 44.6299 192.409 42.6788 192.409 40.272C192.409 37.8652 190.458 35.9141 188.051 35.9141C185.644 35.9141 183.693 37.8652 183.693 40.272C183.693 42.6788 185.644 44.6299 188.051 44.6299Z" fill="#A9CCDF"/>
<path opacity="0.33" d="M341.668 74.5908C344.075 74.5908 346.026 72.6397 346.026 70.2329C346.026 67.8261 344.075 65.875 341.668 65.875C339.261 65.875 337.31 67.8261 337.31 70.2329C337.31 72.6397 339.261 74.5908 341.668 74.5908Z" fill="#A9CCDF"/>
<path opacity="0.33" d="M432.094 202.603C434.501 202.603 436.452 200.651 436.452 198.245C436.452 195.838 434.501 193.887 432.094 193.887C429.687 193.887 427.736 195.838 427.736 198.245C427.736 200.651 429.687 202.603 432.094 202.603Z" fill="#A9CCDF"/>
<path opacity="0.32" d="M32.2554 163.927C34.6622 163.927 36.6133 161.976 36.6133 159.569C36.6133 157.162 34.6622 155.211 32.2554 155.211C29.8486 155.211 27.8975 157.162 27.8975 159.569C27.8975 161.976 29.8486 163.927 32.2554 163.927Z" fill="#A9CCDF"/>
<path opacity="0.32" d="M146.106 53.3447C148.513 53.3447 150.464 51.3936 150.464 48.9868C150.464 46.58 148.513 44.6289 146.106 44.6289C143.699 44.6289 141.748 46.58 141.748 48.9868C141.748 51.3936 143.699 53.3447 146.106 53.3447Z" fill="#A9CCDF"/>
<path opacity="0.32" d="M304.625 52.2549C307.032 52.2549 308.983 50.3038 308.983 47.897C308.983 45.4902 307.032 43.5391 304.625 43.5391C302.219 43.5391 300.268 45.4902 300.268 47.897C300.268 50.3038 302.219 52.2549 304.625 52.2549Z" fill="#A9CCDF"/>
<path opacity="0.31" d="M421.2 160.657C423.607 160.657 425.558 158.706 425.558 156.299C425.558 153.893 423.607 151.941 421.2 151.941C418.793 151.941 416.842 153.893 416.842 156.299C416.842 158.706 418.793 160.657 421.2 160.657Z" fill="#A9CCDF"/>
<path opacity="0.31" d="M15.3687 204.239C17.7755 204.239 19.7266 202.288 19.7266 199.881C19.7266 197.475 17.7755 195.523 15.3687 195.523C12.9618 195.523 11.0107 197.475 11.0107 199.881C11.0107 202.288 12.9618 204.239 15.3687 204.239Z" fill="#A9CCDF"/>
<path opacity="0.31" d="M105.796 71.3213C108.203 71.3213 110.154 69.3702 110.154 66.9634C110.154 64.5566 108.203 62.6055 105.796 62.6055C103.389 62.6055 101.438 64.5566 101.438 66.9634C101.438 69.3702 103.389 71.3213 105.796 71.3213Z" fill="#A9CCDF"/>
<path opacity="0.31" d="M263.77 37.001C266.177 37.001 268.128 35.0499 268.128 32.6431C268.128 30.2363 266.177 28.2852 263.77 28.2852C261.363 28.2852 259.412 30.2363 259.412 32.6431C259.412 35.0499 261.363 37.001 263.77 37.001Z" fill="#A9CCDF"/>
<path opacity="0.3" d="M401.589 121.438C403.996 121.438 405.947 119.487 405.947 117.081C405.947 114.674 403.996 112.723 401.589 112.723C399.183 112.723 397.231 114.674 397.231 117.081C397.231 119.487 399.183 121.438 401.589 121.438Z" fill="#A9CCDF"/>
<path opacity="0.3" d="M69.8428 96.9229C72.2496 96.9229 74.2007 94.9718 74.2007 92.5649C74.2007 90.1581 72.2496 88.207 69.8428 88.207C67.436 88.207 65.4849 90.1581 65.4849 92.5649C65.4849 94.9718 67.436 96.9229 69.8428 96.9229Z" fill="#A9CCDF"/>
<path opacity="0.29" d="M219.646 31.0127C222.053 31.0127 224.004 29.0616 224.004 26.6548C224.004 24.248 222.053 22.2969 219.646 22.2969C217.239 22.2969 215.288 24.248 215.288 26.6548C215.288 29.0616 217.239 31.0127 219.646 31.0127Z" fill="#A9CCDF"/>
<path opacity="0.29" d="M373.808 86.0283C376.214 86.0283 378.166 84.0772 378.166 81.6704C378.166 79.2636 376.214 77.3125 373.808 77.3125C371.401 77.3125 369.45 79.2636 369.45 81.6704C369.45 84.0772 371.401 86.0283 373.808 86.0283Z" fill="#A9CCDF"/>
<path opacity="0.29" d="M38.7925 130.153C41.1993 130.153 43.1504 128.202 43.1504 125.795C43.1504 123.389 41.1993 121.438 38.7925 121.438C36.3857 121.438 34.4346 123.389 34.4346 125.795C34.4346 128.202 36.3857 130.153 38.7925 130.153Z" fill="#A9CCDF"/>
<path opacity="0.28" d="M174.433 33.7354C176.839 33.7354 178.791 31.7843 178.791 29.3774C178.791 26.9706 176.839 25.0195 174.433 25.0195C172.026 25.0195 170.075 26.9706 170.075 29.3774C170.075 31.7843 172.026 33.7354 174.433 33.7354Z" fill="#A9CCDF"/>
<path opacity="0.28" d="M338.944 57.4324C341.501 57.4324 343.574 55.3594 343.574 52.8022C343.574 50.2449 341.501 48.1719 338.944 48.1719C336.387 48.1719 334.313 50.2449 334.313 52.8022C334.313 55.3594 336.387 57.4324 338.944 57.4324Z" fill="#A9CCDF"/>
<path opacity="0.28" d="M442.445 188.167C445.002 188.167 447.075 186.094 447.075 183.537C447.075 180.979 445.002 178.906 442.445 178.906C439.888 178.906 437.814 180.979 437.814 183.537C437.814 186.094 439.888 188.167 442.445 188.167Z" fill="#A9CCDF"/>
<path opacity="0.27" d="M14.8241 169.647C17.3814 169.647 19.4544 167.574 19.4544 165.017C19.4544 162.46 17.3814 160.387 14.8241 160.387C12.2669 160.387 10.1938 162.46 10.1938 165.017C10.1938 167.574 12.2669 169.647 14.8241 169.647Z" fill="#A9CCDF"/>
<path opacity="0.27" d="M129.764 45.991C132.321 45.991 134.394 43.918 134.394 41.3608C134.394 38.8035 132.321 36.7305 129.764 36.7305C127.207 36.7305 125.134 38.8035 125.134 41.3608C125.134 43.918 127.207 45.991 129.764 45.991Z" fill="#A9CCDF"/>
<path opacity="0.27" d="M298.633 35.6434C301.19 35.6434 303.264 33.5703 303.264 31.0131C303.264 28.4559 301.19 26.3828 298.633 26.3828C296.076 26.3828 294.003 28.4559 294.003 31.0131C294.003 33.5703 296.076 35.6434 298.633 35.6434Z" fill="#A9CCDF"/>
<path opacity="0.27" d="M428.282 144.589C430.839 144.589 432.912 142.516 432.912 139.958C432.912 137.401 430.839 135.328 428.282 135.328C425.724 135.328 423.651 137.401 423.651 139.958C423.651 142.516 425.724 144.589 428.282 144.589Z" fill="#A9CCDF"/>
<path opacity="0.26" d="M88.3637 67.2371C90.9209 67.2371 92.994 65.1641 92.994 62.6068C92.994 60.0496 90.9209 57.9766 88.3637 57.9766C85.8064 57.9766 83.7334 60.0496 83.7334 62.6068C83.7334 65.1641 85.8064 67.2371 88.3637 67.2371Z" fill="#A9CCDF"/>
<path opacity="0.26" d="M253.965 22.0223C256.522 22.0223 258.595 19.9492 258.595 17.392C258.595 14.8348 256.522 12.7617 253.965 12.7617C251.408 12.7617 249.334 14.8348 249.334 17.392C249.334 19.9492 251.408 22.0223 253.965 22.0223Z" fill="#A9CCDF"/>
<path opacity="0.26" d="M404.857 103.733C407.415 103.733 409.488 101.66 409.488 99.1029C409.488 96.5457 407.415 94.4727 404.857 94.4727C402.3 94.4727 400.227 96.5457 400.227 99.1029C400.227 101.66 402.3 103.733 404.857 103.733Z" fill="#A9CCDF"/>
<path opacity="0.25" d="M51.3217 96.6512C53.8789 96.6512 55.952 94.5781 55.952 92.0209C55.952 89.4637 53.8789 87.3906 51.3217 87.3906C48.7645 87.3906 46.6914 89.4637 46.6914 92.0209C46.6914 94.5781 48.7645 96.6512 51.3217 96.6512Z" fill="#A9CCDF"/>
<path opacity="0.25" d="M206.572 18.2098C209.129 18.2098 211.202 16.1367 211.202 13.5795C211.202 11.0223 209.129 8.94922 206.572 8.94922C204.015 8.94922 201.942 11.0223 201.942 13.5795C201.942 16.1367 204.015 18.2098 206.572 18.2098Z" fill="#A9CCDF"/>
<path opacity="0.25" d="M373.263 68.327C375.82 68.327 377.893 66.2539 377.893 63.6967C377.893 61.1395 375.82 59.0664 373.263 59.0664C370.706 59.0664 368.633 61.1395 368.633 63.6967C368.633 66.2539 370.706 68.327 373.263 68.327Z" fill="#A9CCDF"/>
<path opacity="0.24" d="M20.8163 133.694C23.3736 133.694 25.4466 131.621 25.4466 129.064C25.4466 126.507 23.3736 124.434 20.8163 124.434C18.2591 124.434 16.186 126.507 16.186 129.064C16.186 131.621 18.2591 133.694 20.8163 133.694Z" fill="#A9CCDF"/>
<path opacity="0.24" d="M159.18 23.6551C161.737 23.6551 163.81 21.5821 163.81 19.0248C163.81 16.4676 161.737 14.3945 159.18 14.3945C156.623 14.3945 154.55 16.4676 154.55 19.0248C154.55 21.5821 156.623 23.6551 159.18 23.6551Z" fill="#A9CCDF"/>
<path opacity="0.24" d="M335.131 39.4559C337.689 39.4559 339.762 37.3828 339.762 34.8256C339.762 32.2684 337.689 30.1953 335.131 30.1953C332.574 30.1953 330.501 32.2684 330.501 34.8256C330.501 37.3828 332.574 39.4559 335.131 39.4559Z" fill="#A9CCDF"/>
<path opacity="0.24" d="M451.705 172.641C454.413 172.641 456.608 170.446 456.608 167.739C456.608 165.031 454.413 162.836 451.705 162.836C448.997 162.836 446.802 165.031 446.802 167.739C446.802 170.446 448.997 172.641 451.705 172.641Z" fill="#A9CCDF"/>
<path opacity="0.23" d="M-2.06316 177.001C0.644499 177.001 2.83949 174.806 2.83949 172.098C2.83949 169.39 0.644499 167.195 -2.06316 167.195C-4.77083 167.195 -6.96582 169.39 -6.96582 172.098C-6.96582 174.806 -4.77083 177.001 -2.06316 177.001Z" fill="#A9CCDF"/>
<path opacity="0.23" d="M112.877 39.7272C115.585 39.7272 117.78 37.5322 117.78 34.8245C117.78 32.1169 115.585 29.9219 112.877 29.9219C110.17 29.9219 107.975 32.1169 107.975 34.8245C107.975 37.5322 110.17 39.7272 112.877 39.7272Z" fill="#A9CCDF"/>
<path opacity="0.23" d="M290.463 19.028C293.17 19.028 295.365 16.833 295.365 14.1253C295.365 11.4177 293.17 9.22266 290.463 9.22266C287.755 9.22266 285.56 11.4177 285.56 14.1253C285.56 16.833 287.755 19.028 290.463 19.028Z" fill="#A9CCDF"/>
<path opacity="0.23" d="M433.729 126.883C436.436 126.883 438.631 124.688 438.631 121.981C438.631 119.273 436.436 117.078 433.729 117.078C431.021 117.078 428.826 119.273 428.826 121.981C428.826 124.688 431.021 126.883 433.729 126.883Z" fill="#A9CCDF"/>
<path opacity="0.22" d="M69.8431 64.2389C72.5507 64.2389 74.7457 62.0439 74.7457 59.3363C74.7457 56.6286 72.5507 54.4336 69.8431 54.4336C67.1354 54.4336 64.9404 56.6286 64.9404 59.3363C64.9404 62.0439 67.1354 64.2389 69.8431 64.2389Z" fill="#A9CCDF"/>
<path opacity="0.22" d="M242.525 7.58656C245.233 7.58656 247.428 5.39157 247.428 2.68391C247.428 -0.0237558 245.233 -2.21875 242.525 -2.21875C239.818 -2.21875 237.623 -0.0237558 237.623 2.68391C237.623 5.39157 239.818 7.58656 242.525 7.58656Z" fill="#A9CCDF"/>
<path opacity="0.22" d="M407.036 85.485C409.744 85.485 411.939 83.29 411.939 80.5823C411.939 77.8747 409.744 75.6797 407.036 75.6797C404.329 75.6797 402.134 77.8747 402.134 80.5823C402.134 83.29 404.329 85.485 407.036 85.485Z" fill="#A9CCDF"/>
<path opacity="0.21" d="M32.8001 98.0123C35.5078 98.0123 37.7028 95.8174 37.7028 93.1097C37.7028 90.402 35.5078 88.207 32.8001 88.207C30.0925 88.207 27.8975 90.402 27.8975 93.1097C27.8975 95.8174 30.0925 98.0123 32.8001 98.0123Z" fill="#A9CCDF"/>
<path opacity="0.21" d="M192.409 6.49672C195.117 6.49672 197.312 4.30173 197.312 1.59406C197.312 -1.1136 195.117 -3.30859 192.409 -3.30859C189.701 -3.30859 187.506 -1.1136 187.506 1.59406C187.506 4.30173 189.701 6.49672 192.409 6.49672Z" fill="#A9CCDF"/>
<path opacity="0.21" d="M371.629 50.0788C374.336 50.0788 376.531 47.8838 376.531 45.1761C376.531 42.4684 374.336 40.2734 371.629 40.2734C368.921 40.2734 366.726 42.4684 366.726 45.1761C366.726 47.8838 368.921 50.0788 371.629 50.0788Z" fill="#A9CCDF"/>
<path opacity="0.2" d="M471.316 205.329C474.023 205.329 476.218 203.134 476.218 200.426C476.218 197.718 474.023 195.523 471.316 195.523C468.608 195.523 466.413 197.718 466.413 200.426C466.413 203.134 468.608 205.329 471.316 205.329Z" fill="#A9CCDF"/>
<path opacity="0.2" d="M2.83967 138.868C5.54733 138.868 7.74233 136.673 7.74233 133.965C7.74233 131.257 5.54733 129.062 2.83967 129.062C0.132006 129.062 -2.06299 131.257 -2.06299 133.965C-2.06299 136.673 0.132006 138.868 2.83967 138.868Z" fill="#A9CCDF"/>
<path opacity="0.2" d="M142.293 15.2116C145 15.2116 147.195 13.0166 147.195 10.3089C147.195 7.60124 145 5.40625 142.293 5.40625C139.585 5.40625 137.39 7.60124 137.39 10.3089C137.39 13.0166 139.585 15.2116 142.293 15.2116Z" fill="#A9CCDF"/>
<path opacity="0.19" d="M329.139 21.7506C331.847 21.7506 334.042 19.5556 334.042 16.848C334.042 14.1403 331.847 11.9453 329.139 11.9453C326.431 11.9453 324.236 14.1403 324.236 16.848C324.236 19.5556 326.431 21.7506 329.139 21.7506Z" fill="#A9CCDF"/>
<path opacity="0.19" d="M459.876 155.755C462.583 155.755 464.778 153.56 464.778 150.852C464.778 148.144 462.583 145.949 459.876 145.949C457.168 145.949 454.973 148.144 454.973 150.852C454.973 153.56 457.168 155.755 459.876 155.755Z" fill="#A9CCDF"/>
<path opacity="0.18" d="M94.3562 34.5532C97.2143 34.5532 99.5312 32.2362 99.5312 29.3782C99.5312 26.5201 97.2143 24.2031 94.3562 24.2031C91.4981 24.2031 89.1812 26.5201 89.1812 29.3782C89.1812 32.2362 91.4981 34.5532 94.3562 34.5532Z" fill="#A9CCDF"/>
<path opacity="0.18" d="M281.202 2.95552C284.06 2.95552 286.377 0.638585 286.377 -2.2195C286.377 -5.07759 284.06 -7.39453 281.202 -7.39453C278.344 -7.39453 276.027 -5.07759 276.027 -2.2195C276.027 0.638585 278.344 2.95552 281.202 2.95552Z" fill="#A9CCDF"/>
<path opacity="0.18" d="M438.632 109.182C441.49 109.182 443.807 106.865 443.807 104.007C443.807 101.149 441.49 98.832 438.632 98.832C435.773 98.832 433.457 101.149 433.457 104.007C433.457 106.865 435.773 109.182 438.632 109.182Z" fill="#A9CCDF"/>
<path opacity="0.17" d="M51.3215 63.4243C54.1796 63.4243 56.4965 61.1073 56.4965 58.2492C56.4965 55.3912 54.1796 53.0742 51.3215 53.0742C48.4634 53.0742 46.1465 55.3912 46.1465 58.2492C46.1465 61.1073 48.4634 63.4243 51.3215 63.4243Z" fill="#A9CCDF"/>
<path opacity="0.17" d="M407.581 66.6899C410.439 66.6899 412.756 64.373 412.756 61.5149C412.756 58.6568 410.439 56.3398 407.581 56.3398C404.723 56.3398 402.406 58.6568 402.406 61.5149C402.406 64.373 404.723 66.6899 407.581 66.6899Z" fill="#A9CCDF"/>
<path opacity="0.16" d="M13.7346 100.463C16.5927 100.463 18.9096 98.1464 18.9096 95.2883C18.9096 92.4302 16.5927 90.1133 13.7346 90.1133C10.8765 90.1133 8.55957 92.4302 8.55957 95.2883C8.55957 98.1464 10.8765 100.463 13.7346 100.463Z" fill="#A9CCDF"/>
<path opacity="0.16" d="M367.816 31.2836C370.674 31.2836 372.991 28.9667 372.991 26.1086C372.991 23.2505 370.674 20.9336 367.816 20.9336C364.958 20.9336 362.641 23.2505 362.641 26.1086C362.641 28.9667 364.958 31.2836 367.816 31.2836Z" fill="#A9CCDF"/>
<path opacity="0.16" d="M481.666 189.256C484.524 189.256 486.841 186.939 486.841 184.081C486.841 181.223 484.524 178.906 481.666 178.906C478.808 178.906 476.491 181.223 476.491 184.081C476.491 186.939 478.808 189.256 481.666 189.256Z" fill="#A9CCDF"/>
<path opacity="0.15" d="M124.862 7.85787C127.72 7.85787 130.037 5.54093 130.037 2.68284C130.037 -0.175249 127.72 -2.49219 124.862 -2.49219C122.003 -2.49219 119.687 -0.175249 119.687 2.68284C119.687 5.54093 122.003 7.85787 124.862 7.85787Z" fill="#A9CCDF"/>
<path opacity="0.15" d="M321.512 4.59224C324.371 4.59224 326.687 2.2753 326.687 -0.582785C326.687 -3.44087 324.371 -5.75781 321.512 -5.75781C318.654 -5.75781 316.337 -3.44087 316.337 -0.582785C316.337 2.2753 318.654 4.59224 321.512 4.59224Z" fill="#A9CCDF"/>
<path opacity="0.15" d="M466.958 138.053C469.816 138.053 472.133 135.736 472.133 132.878C472.133 130.02 469.816 127.703 466.958 127.703C464.1 127.703 461.783 130.02 461.783 132.878C461.783 135.736 464.1 138.053 466.958 138.053Z" fill="#A9CCDF"/>
<path opacity="0.14" d="M75.8351 31.012C78.8436 31.012 81.2825 28.5731 81.2825 25.5646C81.2825 22.5561 78.8436 20.1172 75.8351 20.1172C72.8266 20.1172 70.3877 22.5561 70.3877 25.5646C70.3877 28.5731 72.8266 31.012 75.8351 31.012Z" fill="#A9CCDF"/>
<path opacity="0.14" d="M441.355 89.844C444.364 89.844 446.803 87.4051 446.803 84.3966C446.803 81.3881 444.364 78.9492 441.355 78.9492C438.347 78.9492 435.908 81.3881 435.908 84.3966C435.908 87.4051 438.347 89.844 441.355 89.844Z" fill="#A9CCDF"/>
<path opacity="0.13" d="M31.7111 63.6956C34.7196 63.6956 37.1585 61.2567 37.1585 58.2482C37.1585 55.2397 34.7196 52.8008 31.7111 52.8008C28.7026 52.8008 26.2637 55.2397 26.2637 58.2482C26.2637 61.2567 28.7026 63.6956 31.7111 63.6956Z" fill="#A9CCDF"/>
<path opacity="0.13" d="M406.492 47.3518C409.501 47.3518 411.94 44.9129 411.94 41.9044C411.94 38.8959 409.501 36.457 406.492 36.457C403.484 36.457 401.045 38.8959 401.045 41.9044C401.045 44.9129 403.484 47.3518 406.492 47.3518Z" fill="#A9CCDF"/>
<path opacity="0.12" d="M-5.33141 105.094C-2.3229 105.094 0.115985 102.655 0.115985 99.6466C0.115985 96.6381 -2.3229 94.1992 -5.33141 94.1992C-8.33993 94.1992 -10.7788 96.6381 -10.7788 99.6466C-10.7788 102.655 -8.33993 105.094 -5.33141 105.094Z" fill="#A9CCDF"/>
<path opacity="0.12" d="M362.913 12.4885C365.922 12.4885 368.361 10.0497 368.361 7.04115C368.361 4.03263 365.922 1.59375 362.913 1.59375C359.905 1.59375 357.466 4.03263 357.466 7.04115C357.466 10.0497 359.905 12.4885 362.913 12.4885Z" fill="#A9CCDF"/>
<path opacity="0.12" d="M490.927 172.645C493.935 172.645 496.374 170.206 496.374 167.197C496.374 164.189 493.935 161.75 490.927 161.75C487.918 161.75 485.479 164.189 485.479 167.197C485.479 170.206 487.918 172.645 490.927 172.645Z" fill="#A9CCDF"/>
<path opacity="0.11" d="M106.34 1.05104C109.348 1.05104 111.787 -1.38784 111.787 -4.39635C111.787 -7.40487 109.348 -9.84375 106.34 -9.84375C103.331 -9.84375 100.893 -7.40487 100.893 -4.39635C100.893 -1.38784 103.331 1.05104 106.34 1.05104Z" fill="#A9CCDF"/>
<path opacity="0.1" d="M472.405 119.258C475.414 119.258 477.853 116.819 477.853 113.811C477.853 110.802 475.414 108.363 472.405 108.363C469.397 108.363 466.958 110.802 466.958 113.811C466.958 116.819 469.397 119.258 472.405 119.258Z" fill="#A9CCDF"/>
<path d="M29.8359 166.387L37.0078 158.277V156.32H25.5469V158.969H32.4844L25.3828 166.984V169H37.3008V166.387H29.8359ZM44.8359 163.762L48.4336 169H52.4297L46.9805 161.605L51.7617 156.32H47.8477L44.3438 160.164L43.3594 161.289V151H40.1016V169H43.3594V165.133L44.8359 163.762ZM62.7539 165.438L63.75 169H67.2188L61.7344 151.938H58.7461L53.1562 169H56.625L57.6328 165.438H62.7539ZM58.4414 162.637L60.2344 156.355L61.9805 162.637H58.4414ZM77.168 169H80.1211V156.32H76.8516V165.215C76.75 165.418 76.6289 165.602 76.4883 165.766C76.3477 165.93 76.1875 166.07 76.0078 166.188C75.7969 166.32 75.5508 166.422 75.2695 166.492C74.9961 166.562 74.6875 166.598 74.3438 166.598C73.9609 166.598 73.6367 166.551 73.3711 166.457C73.1055 166.363 72.8906 166.207 72.7266 165.988C72.5625 165.777 72.4414 165.496 72.3633 165.145C72.293 164.793 72.2578 164.359 72.2578 163.844V156.32H69V163.82C69 164.781 69.1055 165.605 69.3164 166.293C69.5352 166.973 69.8398 167.531 70.2305 167.969C70.6211 168.414 71.0898 168.738 71.6367 168.941C72.1836 169.145 72.7852 169.246 73.4414 169.246C74.1602 169.246 74.8203 169.066 75.4219 168.707C76.0312 168.348 76.5508 167.852 76.9805 167.219L77.168 169ZM89.2852 153.215H86.0273V156.32H83.1328V158.723H86.0273V164.488C86.0273 165.324 86.1367 166.043 86.3555 166.645C86.5742 167.238 86.8867 167.727 87.293 168.109C87.6914 168.5 88.1719 168.789 88.7344 168.977C89.3047 169.156 89.9375 169.246 90.6328 169.246C90.9922 169.246 91.3555 169.227 91.7227 169.188C92.0977 169.156 92.457 169.109 92.8008 169.047C93.1445 168.984 93.4688 168.906 93.7734 168.812C94.0781 168.711 94.3438 168.594 94.5703 168.461L94.2539 166.223C94.1055 166.262 93.9258 166.301 93.7148 166.34C93.5117 166.379 93.293 166.414 93.0586 166.445C92.8164 166.484 92.5625 166.516 92.2969 166.539C92.0391 166.562 91.7852 166.574 91.5352 166.574C91.1914 166.574 90.8789 166.535 90.5977 166.457C90.3242 166.379 90.0898 166.246 89.8945 166.059C89.6992 165.879 89.5469 165.637 89.4375 165.332C89.3359 165.02 89.2852 164.633 89.2852 164.172V158.723H94.0195V156.32H89.2852V153.215ZM97.2773 162.543V162.789C97.2773 163.719 97.4102 164.578 97.6758 165.367C97.9414 166.148 98.332 166.828 98.8477 167.406C99.3555 167.984 99.9805 168.438 100.723 168.766C101.473 169.086 102.324 169.246 103.277 169.246C104.223 169.246 105.066 169.086 105.809 168.766C106.551 168.438 107.176 167.984 107.684 167.406C108.191 166.828 108.578 166.148 108.844 165.367C109.109 164.578 109.242 163.719 109.242 162.789V162.543C109.242 161.621 109.109 160.77 108.844 159.988C108.578 159.199 108.191 158.516 107.684 157.938C107.168 157.359 106.539 156.906 105.797 156.578C105.055 156.25 104.207 156.086 103.254 156.086C102.301 156.086 101.453 156.25 100.711 156.578C99.9766 156.906 99.3555 157.359 98.8477 157.938C98.332 158.516 97.9414 159.199 97.6758 159.988C97.4102 160.77 97.2773 161.621 97.2773 162.543ZM100.535 162.789V162.543C100.535 162.027 100.586 161.539 100.688 161.078C100.789 160.617 100.949 160.211 101.168 159.859C101.387 159.508 101.668 159.23 102.012 159.027C102.355 158.824 102.77 158.723 103.254 158.723C103.746 158.723 104.164 158.824 104.508 159.027C104.852 159.23 105.133 159.508 105.352 159.859C105.562 160.211 105.719 160.617 105.82 161.078C105.922 161.539 105.973 162.027 105.973 162.543V162.789C105.973 163.32 105.922 163.82 105.82 164.289C105.719 164.75 105.562 165.152 105.352 165.496C105.133 165.848 104.852 166.125 104.508 166.328C104.164 166.531 103.754 166.633 103.277 166.633C102.785 166.633 102.363 166.531 102.012 166.328C101.668 166.125 101.387 165.848 101.168 165.496C100.949 165.152 100.789 164.75 100.688 164.289C100.586 163.82 100.535 163.32 100.535 162.789ZM114.164 156.32H111.363V169H114.328V159.508C114.367 159.406 114.41 159.312 114.457 159.227C114.504 159.141 114.559 159.066 114.621 159.004C114.707 158.918 114.805 158.852 114.914 158.805C115.023 158.758 115.148 158.734 115.289 158.734C115.414 158.734 115.531 158.754 115.641 158.793C115.75 158.824 115.848 158.883 115.934 158.969C116.012 159.055 116.074 159.176 116.121 159.332C116.168 159.488 116.191 159.688 116.191 159.93V169H119.062V159.648C119.062 159.555 119.062 159.48 119.062 159.426C119.062 159.371 119.062 159.336 119.062 159.32C119.102 159.234 119.148 159.16 119.203 159.098C119.258 159.027 119.32 158.965 119.391 158.91C119.477 158.855 119.566 158.812 119.66 158.781C119.762 158.75 119.875 158.734 120 158.734C120.117 158.734 120.23 158.754 120.34 158.793C120.457 158.824 120.559 158.883 120.645 158.969C120.73 159.062 120.797 159.188 120.844 159.344C120.898 159.5 120.926 159.699 120.926 159.941V169H123.891V159.953C123.891 159.25 123.82 158.656 123.68 158.172C123.547 157.68 123.359 157.277 123.117 156.965C122.867 156.66 122.574 156.438 122.238 156.297C121.91 156.156 121.555 156.086 121.172 156.086C120.867 156.086 120.586 156.125 120.328 156.203C120.07 156.281 119.84 156.391 119.637 156.531C119.473 156.641 119.32 156.773 119.18 156.93C119.047 157.078 118.926 157.246 118.816 157.434C118.746 157.238 118.66 157.066 118.559 156.918C118.465 156.762 118.352 156.629 118.219 156.52C118.047 156.371 117.844 156.262 117.609 156.191C117.375 156.121 117.109 156.086 116.812 156.086C116.203 156.086 115.684 156.246 115.254 156.566C114.832 156.879 114.5 157.309 114.258 157.855L114.164 156.32ZM134.473 169H137.777V168.801C137.613 168.48 137.488 168.098 137.402 167.652C137.316 167.207 137.273 166.645 137.273 165.965V160.527C137.273 159.793 137.137 159.148 136.863 158.594C136.59 158.031 136.211 157.566 135.727 157.199C135.242 156.832 134.668 156.555 134.004 156.367C133.348 156.18 132.637 156.086 131.871 156.086C131.02 156.086 130.262 156.195 129.598 156.414C128.941 156.625 128.387 156.914 127.934 157.281C127.473 157.648 127.121 158.074 126.879 158.559C126.645 159.043 126.527 159.555 126.527 160.094H129.785C129.785 159.867 129.816 159.66 129.879 159.473C129.949 159.285 130.055 159.125 130.195 158.992C130.352 158.844 130.555 158.73 130.805 158.652C131.055 158.566 131.352 158.523 131.695 158.523C132.086 158.523 132.426 158.574 132.715 158.676C133.012 158.77 133.258 158.906 133.453 159.086C133.641 159.258 133.781 159.465 133.875 159.707C133.969 159.941 134.016 160.207 134.016 160.504V161.254H132.199C131.262 161.254 130.43 161.34 129.703 161.512C128.984 161.676 128.379 161.918 127.887 162.238C127.34 162.59 126.93 163.039 126.656 163.586C126.383 164.125 126.246 164.746 126.246 165.449C126.246 165.996 126.355 166.504 126.574 166.973C126.793 167.434 127.098 167.832 127.488 168.168C127.879 168.504 128.344 168.766 128.883 168.953C129.43 169.141 130.027 169.234 130.676 169.234C131.074 169.234 131.445 169.195 131.789 169.117C132.133 169.047 132.449 168.945 132.738 168.812C133.02 168.688 133.277 168.539 133.512 168.367C133.746 168.195 133.953 168.012 134.133 167.816C134.172 168.043 134.219 168.258 134.273 168.461C134.328 168.664 134.395 168.844 134.473 169ZM131.367 166.715C131.062 166.715 130.793 166.68 130.559 166.609C130.332 166.531 130.141 166.43 129.984 166.305C129.828 166.172 129.707 166.012 129.621 165.824C129.543 165.629 129.504 165.418 129.504 165.191C129.504 164.902 129.559 164.637 129.668 164.395C129.777 164.145 129.945 163.93 130.172 163.75C130.398 163.578 130.691 163.445 131.051 163.352C131.41 163.25 131.844 163.199 132.352 163.199H134.016V165.379C133.922 165.543 133.793 165.707 133.629 165.871C133.465 166.027 133.27 166.168 133.043 166.293C132.816 166.418 132.562 166.52 132.281 166.598C132 166.676 131.695 166.715 131.367 166.715ZM146.941 153.215H143.684V156.32H140.789V158.723H143.684V164.488C143.684 165.324 143.793 166.043 144.012 166.645C144.23 167.238 144.543 167.727 144.949 168.109C145.348 168.5 145.828 168.789 146.391 168.977C146.961 169.156 147.594 169.246 148.289 169.246C148.648 169.246 149.012 169.227 149.379 169.188C149.754 169.156 150.113 169.109 150.457 169.047C150.801 168.984 151.125 168.906 151.43 168.812C151.734 168.711 152 168.594 152.227 168.461L151.91 166.223C151.762 166.262 151.582 166.301 151.371 166.34C151.168 166.379 150.949 166.414 150.715 166.445C150.473 166.484 150.219 166.516 149.953 166.539C149.695 166.562 149.441 166.574 149.191 166.574C148.848 166.574 148.535 166.535 148.254 166.457C147.98 166.379 147.746 166.246 147.551 166.059C147.355 165.879 147.203 165.637 147.094 165.332C146.992 165.02 146.941 164.633 146.941 164.172V158.723H151.676V156.32H146.941V153.215ZM156.246 156.32V158.98H159.855V166.352H156.246V169H166.582V166.352H163.148V156.32H156.246ZM159.621 153.074C159.621 153.324 159.664 153.559 159.75 153.777C159.844 153.988 159.973 154.168 160.137 154.316C160.301 154.473 160.496 154.594 160.723 154.68C160.957 154.766 161.215 154.809 161.496 154.809C162.074 154.809 162.531 154.648 162.867 154.328C163.211 154 163.383 153.582 163.383 153.074C163.383 152.566 163.211 152.152 162.867 151.832C162.531 151.504 162.074 151.34 161.496 151.34C161.215 151.34 160.957 151.383 160.723 151.469C160.496 151.555 160.301 151.672 160.137 151.82C159.973 151.977 159.844 152.164 159.75 152.383C159.664 152.594 159.621 152.824 159.621 153.074ZM169.348 162.543V162.789C169.348 163.719 169.48 164.578 169.746 165.367C170.012 166.148 170.402 166.828 170.918 167.406C171.426 167.984 172.051 168.438 172.793 168.766C173.543 169.086 174.395 169.246 175.348 169.246C176.293 169.246 177.137 169.086 177.879 168.766C178.621 168.438 179.246 167.984 179.754 167.406C180.262 166.828 180.648 166.148 180.914 165.367C181.18 164.578 181.312 163.719 181.312 162.789V162.543C181.312 161.621 181.18 160.77 180.914 159.988C180.648 159.199 180.262 158.516 179.754 157.938C179.238 157.359 178.609 156.906 177.867 156.578C177.125 156.25 176.277 156.086 175.324 156.086C174.371 156.086 173.523 156.25 172.781 156.578C172.047 156.906 171.426 157.359 170.918 157.938C170.402 158.516 170.012 159.199 169.746 159.988C169.48 160.77 169.348 161.621 169.348 162.543ZM172.605 162.789V162.543C172.605 162.027 172.656 161.539 172.758 161.078C172.859 160.617 173.02 160.211 173.238 159.859C173.457 159.508 173.738 159.23 174.082 159.027C174.426 158.824 174.84 158.723 175.324 158.723C175.816 158.723 176.234 158.824 176.578 159.027C176.922 159.23 177.203 159.508 177.422 159.859C177.633 160.211 177.789 160.617 177.891 161.078C177.992 161.539 178.043 162.027 178.043 162.543V162.789C178.043 163.32 177.992 163.82 177.891 164.289C177.789 164.75 177.633 165.152 177.422 165.496C177.203 165.848 176.922 166.125 176.578 166.328C176.234 166.531 175.824 166.633 175.348 166.633C174.855 166.633 174.434 166.531 174.082 166.328C173.738 166.125 173.457 165.848 173.238 165.496C173.02 165.152 172.859 164.75 172.758 164.289C172.656 163.82 172.605 163.32 172.605 162.789ZM184.207 169H187.477V159.988C187.586 159.816 187.707 159.66 187.84 159.52C187.973 159.379 188.121 159.258 188.285 159.156C188.488 159.016 188.719 158.91 188.977 158.84C189.242 158.77 189.531 158.734 189.844 158.734C190.219 158.734 190.555 158.773 190.852 158.852C191.148 158.922 191.402 159.051 191.613 159.238C191.824 159.426 191.984 159.684 192.094 160.012C192.211 160.332 192.27 160.742 192.27 161.242V169H195.527V161.195C195.527 160.273 195.418 159.492 195.199 158.852C194.988 158.203 194.691 157.672 194.309 157.258C193.918 156.852 193.457 156.555 192.926 156.367C192.395 156.18 191.809 156.086 191.168 156.086C190.668 156.086 190.195 156.156 189.75 156.297C189.305 156.438 188.895 156.641 188.52 156.906C188.301 157.062 188.094 157.238 187.898 157.434C187.703 157.629 187.523 157.844 187.359 158.078L187.16 156.32H184.207V169Z" fill="#1C3C4D"/>
<path d="M24 171.344H196.957V172.516H24V171.344Z" fill="#1C3C4D"/>
</g>
<defs>
<clipPath id="clip0_1358_8995">
<rect width="500" height="200" fill="white"/>
</clipPath>
</defs>
</svg>
